<svg width="32" height="32" viewBox="0 0 32 32" fill="none" xmlns="http://www.w3.org/2000/svg">
<path d="M6.96248 29.8583C5.8991 29.8583 4.85529 29.4959 4.0166 28.8511V29.0541C4.0166 29.8414 4.32273 30.5811 4.8786 31.1369C5.4271 31.6854 6.1866 31.9999 6.96248 31.9999H25.0375C25.8133 31.9999 26.5728 31.6854 27.1213 31.1369C27.6772 30.5809 27.9834 29.8413 27.9834 29.0541V28.8511C27.1447 29.4959 26.1009 29.8583 25.0375 29.8583H6.96248Z" fill="#5940DA"/>
<path d="M6.96248 25.8417C5.8991 25.8417 4.85529 25.4793 4.0166 24.8345V25.0375C4.0166 25.8248 4.32273 26.5645 4.8786 27.1203C5.42704 27.6687 6.1866 27.9833 6.96248 27.9833H25.0375C25.8133 27.9833 26.5728 27.6688 27.1213 27.1203C27.6772 26.5643 27.9834 25.8247 27.9834 25.0375V24.8345C27.1446 25.4793 26.1008 25.8417 25.0375 25.8417H6.96248Z" fill="#5940DA"/>
<path d="M16 6.025C17.6979 6.025 19.0792 4.64369 19.0792 2.94581V0H12.9209V2.94587C12.9208 4.64375 14.3021 6.025 16 6.025Z" fill="#5940DA"/>
<path d="M6.96248 21.8252C5.85373 21.8252 4.83198 21.4479 4.0166 20.8164V21.021C4.0166 21.8083 4.32273 22.548 4.87866 23.1038C5.42716 23.6523 6.18673 23.9668 6.96248 23.9668H25.0375C25.8132 23.9668 26.5727 23.6523 27.1213 23.1038C27.6772 22.5478 27.9834 21.8082 27.9834 21.021V20.8164C27.168 21.4479 26.1462 21.8252 25.0375 21.8252H6.96248Z" fill="#5940DA"/>
<path d="M25.0374 0H20.9541V2.94587C20.9541 5.67762 18.7317 7.90006 15.9999 7.90006C13.2682 7.90006 11.0457 5.67762 11.0457 2.94587V0H6.96241C5.33548 0 4.0166 1.31894 4.0166 2.94587V17.0042C4.0166 18.6311 5.33554 19.9501 6.96248 19.9501H25.0374C26.6644 19.9501 27.9833 18.6311 27.9833 17.0042V2.94587C27.9832 1.31894 26.6644 0 25.0374 0Z" fill="#5940DA"/>
</svg>
