<svg width="32" height="32" viewBox="0 0 32 32" fill="none" xmlns="http://www.w3.org/2000/svg">
<g clip-path="url(#clip0_1750_8622)">
<path d="M10.3745 1.87565C9.85631 1.87565 9.43701 2.29495 9.43701 2.81313V3.08206C4.45286 2.05077 1.49536 0.183121 1.45624 0.157246C1.01956 -0.128373 0.442761 -0.0121251 0.157142 0.419991C-0.129414 0.850294 -0.0131667 1.43166 0.417137 1.71815C0.594758 1.83659 3.87569 3.93679 9.43694 5.00745V7.84527C6.39757 8.58544 3.81206 10.568 3.81206 13.9978V19.6877C3.81206 20.2059 4.23137 20.6252 4.74954 20.6252H7.56198V15.9378C7.56198 15.4199 7.98172 15.0003 8.49946 15.0003C9.0172 15.0003 9.43694 15.4199 9.43694 15.9378V31.0625C9.43694 31.5806 9.85625 31.9999 10.3744 31.9999H21.6242C22.1424 31.9999 22.5617 31.5806 22.5617 31.0625V15.9378C22.5617 15.4199 22.9814 15.0003 23.4991 15.0003C24.0169 15.0003 24.4366 15.4199 24.4366 15.9378V20.6252H27.2491C27.7672 20.6252 28.1865 20.2059 28.1865 19.6877V13.9978C28.1865 10.568 25.601 8.58544 22.5617 7.84527V5.00752C28.1229 3.93685 31.4039 1.83665 31.5815 1.71821C32.0126 1.43072 32.129 0.849419 31.8415 0.418178C31.554 -0.0130626 30.9717 -0.130185 30.5414 0.158184C30.5023 0.184058 27.5598 2.05558 22.5616 3.08587V2.81319C22.5616 2.29501 22.1423 1.87571 21.6241 1.87571C21.1059 1.87571 20.6866 2.29501 20.6866 2.81319V3.41911C19.258 3.62417 17.6918 3.75067 15.9992 3.75067C14.3082 3.75067 12.742 3.62298 11.3118 3.41649V2.81319C11.312 2.29495 10.8927 1.87565 10.3745 1.87565ZM15.9994 5.62557C17.6863 5.62557 19.2472 5.50426 20.6868 5.31076V7.55946C20.3739 7.5354 20.0607 7.50053 19.7493 7.50053C19.2311 7.50053 18.8118 7.91983 18.8118 8.43801C18.8118 10.0392 17.1062 11.8785 15.9994 12.8507C14.8925 11.8784 13.1869 10.0392 13.1869 8.43801C13.1869 7.91983 12.7676 7.50053 12.2494 7.50053C11.9381 7.50053 11.6248 7.5354 11.312 7.55946V5.31076C12.7514 5.50426 14.3124 5.62557 15.9994 5.62557Z" fill="#EE6F6B"/>
</g>
<defs>
<clipPath id="clip0_1750_8622">
<rect width="32" height="32" fill="white"/>
</clipPath>
</defs>
</svg>
