<svg width="24" height="25" viewBox="0 0 24 25" fill="none" xmlns="http://www.w3.org/2000/svg">
<path d="M9.46992 15.7799C9.27992 15.7799 9.08992 15.7099 8.93992 15.5599C8.11992 14.7399 7.66992 13.6499 7.66992 12.4999C7.66992 10.1099 9.60992 8.16992 11.9999 8.16992C13.1499 8.16992 14.2399 8.61992 15.0599 9.43992C15.1999 9.57992 15.2799 9.76992 15.2799 9.96992C15.2799 10.1699 15.1999 10.3599 15.0599 10.4999L9.99992 15.5599C9.84992 15.7099 9.65992 15.7799 9.46992 15.7799ZM11.9999 9.66992C10.4399 9.66992 9.16992 10.9399 9.16992 12.4999C9.16992 12.9999 9.29992 13.4799 9.53992 13.8999L13.3999 10.0399C12.9799 9.79992 12.4999 9.66992 11.9999 9.66992Z" fill="black"/>
<path d="M5.59984 19.01C5.42984 19.01 5.24984 18.95 5.10984 18.83C4.03984 17.92 3.07984 16.8 2.25984 15.5C1.19984 13.85 1.19984 11.16 2.25984 9.49998C4.69984 5.67998 8.24984 3.47998 11.9998 3.47998C14.1998 3.47998 16.3698 4.23998 18.2698 5.66998C18.5998 5.91998 18.6698 6.38998 18.4198 6.71998C18.1698 7.04998 17.6998 7.11998 17.3698 6.86998C15.7298 5.62998 13.8698 4.97998 11.9998 4.97998C8.76984 4.97998 5.67984 6.91998 3.51984 10.31C2.76984 11.48 2.76984 13.52 3.51984 14.69C4.26984 15.86 5.12984 16.87 6.07984 17.69C6.38984 17.96 6.42984 18.43 6.15984 18.75C6.01984 18.92 5.80984 19.01 5.59984 19.01Z" fill="black"/>
<path d="M11.9996 21.52C10.6696 21.52 9.36957 21.25 8.11957 20.72C7.73957 20.56 7.55957 20.12 7.71957 19.74C7.87957 19.36 8.31957 19.18 8.69957 19.34C9.75957 19.79 10.8696 20.02 11.9896 20.02C15.2196 20.02 18.3096 18.08 20.4696 14.69C21.2196 13.52 21.2196 11.48 20.4696 10.31C20.1596 9.82 19.8196 9.35 19.4596 8.91C19.1996 8.59 19.2496 8.12 19.5696 7.85C19.8896 7.59 20.3596 7.63 20.6296 7.96C21.0196 8.44 21.3996 8.96 21.7396 9.5C22.7996 11.15 22.7996 13.84 21.7396 15.5C19.2996 19.32 15.7496 21.52 11.9996 21.52Z" fill="black"/>
<path d="M12.6896 16.7699C12.3396 16.7699 12.0196 16.5199 11.9496 16.1599C11.8696 15.7499 12.1396 15.3599 12.5496 15.2899C13.6496 15.0899 14.5696 14.1699 14.7696 13.0699C14.8496 12.6599 15.2396 12.3999 15.6496 12.4699C16.0596 12.5499 16.3296 12.9399 16.2496 13.3499C15.9296 15.0799 14.5496 16.4499 12.8296 16.7699C12.7796 16.7599 12.7396 16.7699 12.6896 16.7699Z" fill="black"/>
<path d="M2.00043 23.2502C1.81043 23.2502 1.62043 23.1802 1.47043 23.0302C1.18043 22.7402 1.18043 22.2602 1.47043 21.9702L8.94043 14.5002C9.23043 14.2102 9.71043 14.2102 10.0004 14.5002C10.2904 14.7902 10.2904 15.2702 10.0004 15.5602L2.53043 23.0302C2.38043 23.1802 2.19043 23.2502 2.00043 23.2502Z" fill="black"/>
<path d="M14.5297 10.7199C14.3397 10.7199 14.1497 10.6499 13.9997 10.4999C13.7097 10.2099 13.7097 9.72994 13.9997 9.43994L21.4697 1.96994C21.7597 1.67994 22.2397 1.67994 22.5297 1.96994C22.8197 2.25994 22.8197 2.73994 22.5297 3.02994L15.0597 10.4999C14.9097 10.6499 14.7197 10.7199 14.5297 10.7199Z" fill="black"/>
</svg>
