<svg width="20" height="20" viewBox="0 0 20 20" fill="none" xmlns="http://www.w3.org/2000/svg">
<path d="M15.688 12.3333L15.6893 12.3355C15.9346 12.738 15.9772 13.2104 15.8151 13.6407C15.6501 14.0786 15.3119 14.4074 14.8769 14.5503L14.8769 14.5503L14.8741 14.5512C13.3105 15.0751 11.6643 15.3337 10.0163 15.3337C8.3683 15.3337 6.72292 15.0751 5.16067 14.5436L5.15966 14.5433C4.66594 14.3765 4.31987 14.0426 4.17867 13.6484L4.17869 13.6484L4.17725 13.6445C4.02688 13.2354 4.07226 12.7762 4.33659 12.3328C4.33682 12.3324 4.33704 12.332 4.33727 12.3316L5.17747 10.9424L5.17752 10.9424L5.18152 10.9356C5.29969 10.733 5.39699 10.4659 5.4644 10.218C5.53171 9.9704 5.58296 9.69143 5.58296 9.45866L5.58296 7.35033C5.58296 5.61603 6.59207 4.10937 8.05565 3.38133L8.19397 3.31252L8.26937 3.17767C8.61558 2.55849 9.26661 2.16699 9.99129 2.16699C10.7286 2.16699 11.3618 2.54573 11.706 3.15469L11.7836 3.29195L11.9259 3.35988C13.4178 4.07211 14.4496 5.59281 14.4496 7.35033V9.45866C14.4496 9.69143 14.5009 9.97033 14.568 10.2184C14.6355 10.4677 14.7322 10.7346 14.8481 10.9388L14.848 10.9389L14.8547 10.95L15.688 12.3333Z" stroke="black"/>
<path d="M10.0004 17.8337C9.49077 17.8337 8.98918 17.633 8.63028 17.2818C9.08572 17.3195 9.55041 17.342 10.0171 17.342C10.4757 17.342 10.9324 17.3195 11.3798 17.2819C11.0193 17.6241 10.5332 17.8337 10.0004 17.8337Z" stroke="black"/>
</svg>
