<svg width="18" height="18" viewBox="0 0 18 18" fill="none" xmlns="http://www.w3.org/2000/svg">
<path d="M3.1443 14.9148L3.14248 14.9132C2.88016 14.6741 2.73411 14.2962 2.78605 13.8485C2.78606 13.8484 2.78608 13.8482 2.7861 13.8481L3.07135 11.4319C3.07136 11.4318 3.07137 11.4317 3.07138 11.4317C3.07138 11.4316 3.07139 11.4316 3.07139 11.4316C3.08991 11.2759 3.15308 11.0676 3.2546 10.8562C3.35636 10.6442 3.47889 10.4661 3.59011 10.356L3.59017 10.3561L3.59638 10.3497L9.92907 3.86606L9.92909 3.86605C10.6606 3.11702 11.3469 2.79391 11.9853 2.77647C12.624 2.75902 13.3288 3.0444 14.1037 3.75253C14.8807 4.46253 15.2054 5.11957 15.2228 5.71864C15.2403 6.31748 14.9547 6.99081 14.2211 7.74196C14.2211 7.74197 14.2211 7.74197 14.2211 7.74198L7.8884 14.2256L7.88839 14.2256L7.88617 14.2279C7.64228 14.4807 7.14489 14.7405 6.78617 14.7974L6.78617 14.7973L6.78281 14.7979L4.32622 15.2038C4.26271 15.2077 4.21668 15.2116 4.17787 15.2149C4.11877 15.22 4.07642 15.2236 4.01459 15.2236C3.65744 15.2236 3.35061 15.1047 3.1443 14.9148ZM10.0172 3.88467L10.0171 3.88483L3.68608 10.3742C3.68576 10.3745 3.68543 10.3749 3.68511 10.3752C3.54953 10.5133 3.43721 10.7045 3.35961 10.8653C3.28111 11.028 3.20391 11.2308 3.17764 11.4151L3.17749 11.415L3.176 11.4277L2.89106 13.8413C2.89098 13.842 2.89089 13.8427 2.89081 13.8434C2.84587 14.206 2.92904 14.5965 3.22789 14.8695C3.52512 15.1411 3.91614 15.1864 4.26056 15.1359L4.26057 15.136L4.27002 15.1344L6.75373 14.7241L6.75452 14.7239C6.94447 14.6923 7.14916 14.6067 7.31091 14.5225C7.47237 14.4385 7.6584 14.3208 7.79099 14.1862L7.79246 14.1847L14.1252 7.70104L14.1262 7.69996C14.6187 7.1928 15.0654 6.60067 15.1098 5.89091C15.156 5.1509 14.7605 4.4633 14.0124 3.78294C13.3463 3.16344 12.6924 2.83083 12.0288 2.83083C11.2104 2.83083 10.562 3.32671 10.0172 3.88467Z" fill="black" stroke="black"/>
<path d="M13.1167 9.35589C13.1013 9.35589 13.0781 9.35589 13.0627 9.35589C10.6561 9.1246 8.72005 7.35634 8.34981 5.04342C8.30353 4.73751 8.5195 4.454 8.83575 4.40177C9.152 4.357 9.44511 4.56591 9.4991 4.87181C9.79221 6.67738 11.304 8.06514 13.1861 8.2442C13.5024 8.27404 13.7338 8.5501 13.7029 8.856C13.6643 9.13952 13.4098 9.35589 13.1167 9.35589Z" fill="black"/>
</svg>
