<svg width="393" height="399" viewBox="0 0 393 399" fill="none" xmlns="http://www.w3.org/2000/svg">
<g opacity="0.14">
<path d="M370.403 332.756C370.194 332.612 370.042 332.508 369.773 332.558C369.687 332.573 369.596 332.596 369.497 332.625C369.258 332.698 369.029 332.794 368.857 332.871C368.275 333.131 367.731 333.457 367.276 333.741C365.694 334.728 364.189 335.883 362.8 336.984C360.997 338.414 359.134 339.985 356.943 341.929C352.365 345.992 347.765 350.419 342.88 355.465C339.65 358.803 335.443 363.256 331.548 368.112C330.488 369.435 329.26 371.01 328.192 372.665L328.094 372.816C327.546 373.662 326.926 374.621 326.741 375.624C326.66 376.065 326.722 376.383 326.952 376.689C327.565 377.502 328.513 378.418 329.558 378.163C330.31 377.978 331.021 377.805 331.789 377.923C331.861 377.934 331.934 377.948 332.006 377.962C332.203 378 332.405 378.04 332.612 378.021C332.67 378.016 332.726 378.005 332.788 377.988L354.009 391.385L363.068 397.104C363.384 397.304 363.7 397.504 364.017 397.703C365.321 398.519 366.874 398.93 368.389 398.863C369.931 398.794 371.418 398.239 372.809 397.212C375.957 394.89 378.914 392.408 381.598 389.835C381.992 389.458 382.384 389.073 382.774 388.684C385.252 386.205 387.655 383.473 389.929 380.545C390.057 380.379 390.188 380.215 390.319 380.048C391.188 378.945 392.088 377.805 392.566 376.464C393.105 374.953 393.144 373.271 392.674 371.729C392.372 370.74 391.855 369.921 391.307 369.054L371.542 337.762C371.6 337.699 371.657 337.635 371.716 337.572C372.091 337.163 372.478 336.741 372.583 336.189C372.875 334.643 371.168 333.285 370.421 332.773L370.403 332.756ZM333.439 377.497L333.476 377.448C333.613 377.263 333.731 377.104 333.944 377.019C334.141 376.94 334.361 376.932 334.548 376.934C334.833 376.938 335.123 376.977 335.404 377.015C335.558 377.036 335.718 377.057 335.876 377.073C336.263 377.112 336.763 377.129 337.197 376.925C337.669 376.703 337.967 376.237 338.087 375.541C338.123 375.324 338.15 375.086 338.178 374.833C338.302 373.706 338.444 372.43 339.569 372.109C339.711 372.068 339.861 372.036 340.006 372.004C340.473 371.904 340.955 371.8 341.298 371.405C341.499 371.173 341.606 370.88 341.709 370.595C341.828 370.266 341.941 369.954 342.186 369.738C342.512 369.452 342.969 369.477 343.449 369.531C343.579 369.545 343.71 369.564 343.839 369.582C344.237 369.638 344.649 369.695 345.061 369.653C346.7 369.487 347.113 368.011 347.514 366.585C347.677 366.002 347.832 365.451 348.065 365.003C348.297 364.56 348.577 364.269 348.924 364.115C349.299 363.948 349.727 363.951 350.14 363.953C350.367 363.954 350.602 363.956 350.826 363.929C352.336 363.75 353.162 362.382 353.712 361.21L353.739 361.152C354.029 360.536 354.328 359.9 354.434 359.222C354.491 358.857 354.451 358.498 354.412 358.15C354.378 357.85 354.344 357.54 354.374 357.234C354.511 355.834 356.374 355.891 357.487 355.924C357.574 355.928 357.658 355.93 357.735 355.931C358.753 355.953 360.532 355.788 361.005 354.423C361.144 354.022 361.115 353.603 361.089 353.2C361.078 353.048 361.068 352.893 361.067 352.741C361.066 352.561 361.063 352.316 361.184 352.161C361.308 352.003 361.542 351.967 361.769 351.931C361.895 351.91 362.014 351.892 362.117 351.853C362.766 351.611 363.135 351.035 363.492 350.478L363.499 350.466C363.832 349.947 364.183 349.462 364.812 349.225C365.198 349.079 365.623 349.003 366.033 348.93C366.726 348.806 367.443 348.676 368.019 348.21C368.562 347.771 369.113 346.995 368.568 344.859L368.537 344.735C368.377 344.115 368.212 343.473 368.315 342.825C368.369 342.483 368.476 342.226 368.642 342.036C368.858 341.79 369.168 341.706 369.466 341.641L369.567 341.62C370.086 341.511 370.676 341.386 370.95 340.84C371.161 340.419 371.064 339.969 370.97 339.535C370.943 339.415 370.919 339.302 370.902 339.192C370.876 338.906 370.939 338.639 371.098 338.359L391.135 370.082C392.334 371.981 392.618 374.226 391.91 376.242C391.68 376.896 391.317 377.549 390.767 378.296C390.29 378.943 389.797 379.592 389.303 380.226C388.101 381.767 386.846 383.273 385.574 384.702C382.785 387.837 379.676 390.826 376.33 393.587C375.006 394.68 373.645 395.741 372.286 396.739C370.961 397.712 369.446 398.206 367.902 398.17C366.665 398.14 365.438 397.766 364.356 397.088C364.244 397.018 364.132 396.947 364.021 396.877L333.405 377.549C333.414 377.53 333.426 377.515 333.439 377.497ZM370.202 339.226C370.203 339.238 370.206 339.25 370.21 339.269C370.21 339.28 370.21 339.291 370.212 339.303C370.227 339.403 370.253 339.513 370.28 339.631C370.38 340.054 370.493 340.534 370.091 340.75C369.864 340.873 369.615 340.921 369.35 340.972C369.053 341.03 368.747 341.089 368.476 341.264C367.26 342.051 367.584 343.868 367.779 344.614C367.795 344.678 367.813 344.744 367.831 344.812C368.095 345.798 368.423 347.026 367.535 347.703C367.043 348.079 366.396 348.186 365.77 348.29C365.369 348.357 364.954 348.426 364.584 348.565C364.192 348.713 363.854 348.93 363.561 349.223C363.452 349.332 363.349 349.452 363.252 349.582C363.136 349.738 363.027 349.914 362.923 350.084C362.69 350.464 362.449 350.857 362.087 351.09C361.902 351.21 361.686 351.258 361.477 351.304C361.153 351.377 360.818 351.452 360.589 351.791C360.321 352.188 360.356 352.696 360.386 353.143L360.39 353.203C360.425 353.728 360.459 354.269 360.032 354.66C359.557 355.091 358.821 355.186 358.31 355.219C357.972 355.241 357.618 355.233 357.276 355.226C356.357 355.206 355.407 355.186 354.587 355.709C354.07 356.039 353.75 356.545 353.684 357.134C353.649 357.45 353.687 357.767 353.724 358.073C353.758 358.355 353.793 358.646 353.77 358.932C353.716 359.565 353.432 360.169 353.157 360.753L353.101 360.872C352.845 361.417 352.533 362.038 352.073 362.527C351.628 362.999 351.085 363.239 350.416 363.258C350.308 363.261 350.199 363.262 350.091 363.263C349.636 363.266 349.164 363.271 348.721 363.447C347.772 363.823 347.347 364.799 347.11 365.498C347.012 365.788 346.931 366.091 346.851 366.385C346.691 366.982 346.524 367.599 346.211 368.134C345.989 368.514 345.706 368.764 345.371 368.88C344.937 369.032 344.459 368.967 343.998 368.903L343.976 368.9C343.128 368.785 341.965 368.627 341.38 369.65C341.285 369.814 341.218 370.006 341.151 370.192C341.021 370.559 340.885 370.94 340.541 371.125C340.294 371.256 340.025 371.311 339.741 371.369C339.443 371.43 339.132 371.493 338.855 371.654C337.809 372.26 337.644 373.581 337.511 374.643C337.5 374.732 337.489 374.819 337.478 374.905C337.471 374.954 337.466 375.004 337.46 375.057C337.403 375.529 337.333 376.116 336.864 376.315C336.537 376.452 336.137 376.406 335.784 376.366L335.763 376.363C335.652 376.35 335.537 376.335 335.421 376.319C334.732 376.225 333.953 376.118 333.349 376.563C333.202 376.671 333.101 376.808 333.002 376.941C332.937 377.028 332.871 377.118 332.792 377.198C332.791 377.198 332.791 377.199 332.789 377.201C332.609 377.38 332.378 377.332 332.132 377.281C332.073 377.269 332.016 377.256 331.958 377.247C331.341 377.15 330.674 377.178 329.973 377.331C329.88 377.352 329.784 377.382 329.692 377.411C329.538 377.459 329.378 377.51 329.228 377.517C328.996 377.527 328.76 377.404 328.582 377.293C328.209 377.066 327.84 376.715 327.514 376.28C327.484 376.241 327.455 376.199 327.428 376.155L327.424 376.15C327.418 376.132 327.411 376.111 327.408 376.091C327.407 376.08 327.406 376.073 327.404 376.066L327.404 376.061C327.396 375.896 327.4 375.88 327.428 375.751L327.436 375.717C327.633 374.826 328.2 373.947 328.7 373.169L328.769 373.061C329.766 371.511 330.876 370.074 331.832 368.874C333.12 367.255 334.582 365.524 336.302 363.581C339.983 359.421 344.03 355.184 348.674 350.629C353.241 346.149 357.151 342.571 360.981 339.368C362.861 337.795 364.332 336.638 365.751 335.618C366.842 334.833 367.916 334.083 369.068 333.543C369.302 333.434 369.579 333.315 369.881 333.253C370.545 333.679 371.082 334.175 371.476 334.725C371.916 335.34 372.025 335.888 371.8 336.353C371.641 336.683 371.38 336.959 371.129 337.226C371.002 337.361 370.871 337.5 370.753 337.645C370.32 338.181 370.145 338.683 370.202 339.226Z" fill="black"/>
<path d="M360.993 390.576C360.627 390.878 360.159 391.264 359.685 391.646C359.602 391.714 359.59 391.819 359.659 391.903C359.727 391.987 359.859 392.024 359.963 391.941C360.425 391.569 360.889 391.188 361.343 390.812C361.455 390.888 361.567 390.962 361.679 391.037C361.82 391.132 361.962 391.227 362.104 391.322C362.684 391.714 363.261 392.108 363.837 392.503C364.146 392.713 364.453 392.925 364.764 393.135C363.945 393.771 363.252 394.296 362.587 394.785C362.48 394.864 362.481 395.003 362.546 395.09C362.609 395.176 362.713 395.192 362.798 395.129C363.536 394.585 364.294 394.01 365.114 393.374C365.409 393.575 365.704 393.775 365.999 393.976C366.611 394.391 367.223 394.808 367.832 395.226L367.683 395.331C367.484 395.471 367.287 395.611 367.087 395.749C367.024 395.792 366.991 395.86 366.996 395.936C367.003 396.014 367.048 396.084 367.114 396.115C367.17 396.143 367.236 396.135 367.294 396.097C367.595 395.89 367.898 395.676 368.192 395.469C368.25 395.5 368.314 395.498 368.368 395.462C368.429 395.423 368.466 395.35 368.466 395.277C370.418 393.888 372.34 392.39 374.181 390.823L374.49 391.103C375.022 391.584 375.554 392.065 376.09 392.543C376.146 392.592 376.218 392.609 376.287 392.584C376.321 392.574 376.351 392.555 376.376 392.53C376.405 392.501 376.425 392.465 376.433 392.426C376.447 392.361 376.424 392.298 376.371 392.252C375.743 391.69 375.106 391.116 374.49 390.559C375.281 389.878 376.059 389.184 376.802 388.497C378.703 386.736 380.553 384.85 382.302 382.892C382.376 382.945 382.473 382.934 382.539 382.888C382.629 382.827 382.651 382.72 382.594 382.629L382.569 382.59C383.463 381.58 384.316 380.57 385.105 379.588C385.441 379.169 385.786 378.731 386.129 378.286L386.347 378.626C386.466 378.812 386.584 378.999 386.703 379.186C386.744 379.25 386.808 379.283 386.88 379.281C386.957 379.277 387.029 379.234 387.063 379.168C387.093 379.11 387.09 379.042 387.052 378.982C386.928 378.787 386.803 378.592 386.677 378.398C386.58 378.246 386.483 378.096 386.387 377.944C387.358 376.672 388.288 375.379 389.153 374.102C389.215 374.011 389.194 373.904 389.102 373.843C389.015 373.785 388.882 373.783 388.806 373.896C387.966 375.137 387.075 376.378 386.157 377.585C385.412 376.415 384.749 375.381 384.134 374.425C385.186 373.083 386.193 371.736 387.129 370.425C387.169 370.369 387.177 370.305 387.151 370.248C387.121 370.182 387.051 370.136 386.974 370.129C386.898 370.121 386.828 370.154 386.784 370.217C385.868 371.501 384.9 372.797 383.906 374.069C383.063 372.761 382.222 371.47 381.431 370.258C382.515 368.886 383.571 367.498 384.57 366.13L390.137 374.921C390.177 374.984 390.241 375.019 390.314 375.016C390.391 375.012 390.463 374.968 390.497 374.903C390.528 374.844 390.524 374.777 390.486 374.717L384.825 365.78L384.891 365.689C385.145 365.338 385.4 364.988 385.651 364.635C385.713 364.548 385.695 364.442 385.607 364.379C385.52 364.317 385.383 364.317 385.305 364.426C385.071 364.756 384.833 365.083 384.595 365.411L384.593 365.414L382.163 361.577C382.563 360.951 382.928 360.368 383.275 359.796C383.34 359.687 383.29 359.579 383.206 359.528C383.12 359.476 382.993 359.482 382.925 359.594C382.6 360.13 382.263 360.67 381.925 361.203L379.099 356.74C379.459 356.263 379.84 355.756 380.217 355.245C380.28 355.16 380.265 355.056 380.178 354.993C380.091 354.928 379.951 354.926 379.873 355.034C379.534 355.495 379.191 355.95 378.87 356.377L376.815 353.132C376.905 353.017 376.997 352.902 377.087 352.787C377.267 352.559 377.446 352.332 377.623 352.103C377.671 352.041 377.681 351.963 377.65 351.891C377.62 351.818 377.556 351.765 377.486 351.756C377.426 351.748 377.368 351.773 377.326 351.828C377.152 352.055 376.975 352.278 376.799 352.503C376.727 352.593 376.657 352.683 376.586 352.774L372.981 347.083C373.505 346.207 373.955 345.42 374.359 344.678C374.421 344.565 374.361 344.452 374.273 344.405C374.187 344.357 374.067 344.368 374.006 344.481C373.626 345.178 373.212 345.906 372.739 346.702L370.951 343.878C370.88 343.766 370.75 343.764 370.664 343.818C370.583 343.87 370.535 343.977 370.602 344.083L372.509 347.093C371.492 348.783 370.382 350.455 369.21 352.065L368.919 351.643C368.652 351.256 368.385 350.869 368.117 350.483C368.072 350.42 368.005 350.388 367.928 350.394C367.851 350.4 367.781 350.447 367.75 350.512C367.722 350.571 367.729 350.634 367.769 350.692C368.004 351.03 368.237 351.37 368.47 351.708C368.631 351.945 368.794 352.18 368.956 352.416C368.293 353.315 367.615 354.19 366.94 355.017C366.639 355.387 366.309 355.78 365.934 356.219L364.651 354.184C364.611 354.121 364.547 354.086 364.474 354.09C364.397 354.092 364.324 354.136 364.291 354.202C364.261 354.261 364.264 354.329 364.302 354.389L365.658 356.54C365.275 356.982 364.929 357.375 364.602 357.737C364.512 357.835 364.545 357.961 364.621 358.03C364.692 358.094 364.81 358.109 364.891 358.019C365.22 357.655 365.553 357.279 365.884 356.899L368.937 361.741L368.914 361.766C368.824 361.862 368.854 361.988 368.929 362.056C368.987 362.11 369.075 362.132 369.155 362.086L371.428 365.691C370.588 366.679 369.824 367.565 369.089 368.399C368.786 368.744 368.479 369.087 368.172 369.431L368.134 369.474L365.446 366.024L366.925 364.634C367.016 364.543 366.997 364.429 366.93 364.358C366.862 364.284 366.737 364.254 366.641 364.345L365.197 365.703L361.084 360.424C361.042 360.369 360.985 360.345 360.924 360.353C360.854 360.363 360.79 360.415 360.76 360.489C360.731 360.562 360.741 360.638 360.789 360.699L361.744 361.925C361.699 361.93 361.658 361.953 361.625 361.991C360.539 363.242 359.278 364.692 358.009 366.098L355.071 362.934C354.986 362.843 354.868 362.861 354.797 362.927C354.724 362.997 354.693 363.121 354.782 363.217L357.736 366.398C356.352 367.923 355.096 369.237 353.901 370.416C353.866 370.451 353.83 370.485 353.794 370.519C353.777 370.536 353.759 370.553 353.742 370.57C352.598 369.393 351.584 368.34 350.645 367.354C350.557 367.262 350.44 367.283 350.368 367.351C350.298 367.42 350.267 367.544 350.357 367.639C351.285 368.614 352.269 369.635 353.452 370.852C352.097 372.165 350.813 373.309 349.531 374.346L348.79 373.722C347.989 373.047 347.16 372.348 346.342 371.665C346.283 371.617 346.208 371.603 346.137 371.629C346.064 371.655 346.008 371.719 345.996 371.79C345.985 371.854 346.009 371.913 346.063 371.958C346.964 372.709 347.877 373.478 348.759 374.221L349.209 374.6C347.798 375.721 346.45 376.671 345.089 377.502C344.531 377.843 343.941 378.179 343.334 378.502C343 378.289 342.667 378.075 342.334 377.861C341.719 377.465 341.106 377.071 340.488 376.679C340.383 376.613 340.275 376.659 340.225 376.741C340.17 376.827 340.172 376.957 340.285 377.028C340.888 377.411 341.489 377.797 342.091 378.183C342.37 378.362 342.648 378.54 342.927 378.718C341.753 379.322 340.554 379.848 339.362 380.281C339.291 380.308 339.241 380.365 339.228 380.441C339.214 380.518 339.241 380.597 339.296 380.643C339.345 380.684 339.409 380.693 339.474 380.67C340.756 380.203 342.048 379.631 343.314 378.967C344.744 379.883 346.054 380.727 347.316 381.544C346.487 382.076 345.659 382.553 344.853 382.963C344.79 382.995 344.752 383.052 344.748 383.118C344.744 383.192 344.782 383.267 344.848 383.309C344.909 383.348 344.982 383.351 345.048 383.318C345.921 382.873 346.784 382.371 347.686 381.784L348.299 382.181C349.259 382.804 350.253 383.448 351.228 384.086C351.4 384.199 351.571 384.313 351.743 384.426C351.864 384.507 351.986 384.586 352.107 384.667C351.483 385.007 350.853 385.295 350.233 385.524C350.107 385.57 350.072 385.702 350.11 385.803C350.148 385.905 350.244 385.95 350.345 385.912C351.053 385.651 351.772 385.315 352.484 384.914C353.831 385.801 354.932 386.527 355.938 387.196C355.48 387.488 354.996 387.796 354.512 388.091C354.399 388.16 354.395 388.287 354.447 388.373C354.498 388.456 354.606 388.507 354.714 388.44C355.229 388.126 355.765 387.79 356.309 387.442C357.714 388.373 359.249 389.4 360.993 390.576ZM364.667 373.261L361.439 369.786L361.696 369.544C361.844 369.404 361.992 369.263 362.141 369.124L365.151 366.294L367.862 369.773C366.799 370.96 365.724 372.133 364.667 373.261ZM372.8 358.019L372.991 358.302C373.662 359.289 374.354 360.309 375.031 361.315C373.931 362.687 372.812 364.046 371.702 365.36L369.444 361.777C370.578 360.553 371.707 359.289 372.8 358.019ZM372.839 357.353C372.775 357.258 372.711 357.164 372.647 357.068C372.561 356.94 372.474 356.812 372.387 356.684C371.508 355.394 370.575 354.035 369.452 352.409C370.56 350.896 371.597 349.353 372.536 347.824C372.585 347.743 372.634 347.661 372.682 347.58C372.704 347.542 372.726 347.505 372.749 347.467L376.32 353.106C375.168 354.569 373.998 355.997 372.839 357.353ZM380.677 369.103C380.385 368.653 380.092 368.202 379.797 367.753C379.621 367.485 379.444 367.218 379.265 366.95C379.131 366.749 378.997 366.547 378.864 366.347C379.951 364.88 380.979 363.401 381.92 361.948L384.338 365.764C383.332 367.145 382.275 368.537 381.199 369.903C381.024 369.636 380.851 369.37 380.677 369.103ZM378.838 357.082L381.681 361.571C380.708 363.08 379.682 364.568 378.629 365.994C377.483 364.261 376.469 362.737 375.529 361.338C376.659 359.923 377.772 358.492 378.838 357.082ZM375.293 360.987C374.507 359.816 373.78 358.739 373.073 357.699C374.086 356.515 374.994 355.422 375.849 354.355C376.006 354.159 376.16 353.962 376.314 353.764C376.392 353.665 376.469 353.566 376.547 353.466L378.608 356.72C377.563 358.106 376.448 359.541 375.293 360.987ZM372.567 357.675C371.979 358.359 371.401 359.019 370.846 359.641C370.38 360.164 369.876 360.715 369.221 361.424L368.601 360.441L366.159 356.569C367.205 355.348 368.227 354.067 369.197 352.758C370.36 354.444 371.495 356.098 372.567 357.675ZM375.159 361.799L375.267 361.665L375.307 361.724C376.405 363.36 377.472 364.972 378.375 366.337C377.304 367.771 376.167 369.197 374.992 370.577L371.928 365.716C372.782 364.706 373.555 363.778 374.29 362.876C374.581 362.52 374.871 362.159 375.159 361.799ZM380.322 379.031C381.062 378.186 381.797 377.32 382.507 376.457C382.924 375.95 383.37 375.394 383.87 374.76C384.556 375.827 385.237 376.891 385.895 377.923C384.752 379.411 383.557 380.862 382.343 382.238L380.322 379.031ZM367.447 378.929C367.797 378.613 368.148 378.286 368.487 377.968L371.362 381.064C370.244 382.202 369.074 383.349 367.884 384.476L367.815 384.411C367.244 383.874 366.674 383.338 366.106 382.798C365.717 382.428 365.33 382.057 364.943 381.686L364.617 381.372C365.595 380.563 366.547 379.742 367.447 378.929ZM374.528 378.329L377.243 381.815C376.459 382.645 375.661 383.464 374.872 384.249L371.921 381.071C372.812 380.159 373.689 379.237 374.528 378.329ZM371.749 374.762L374.276 378.005C373.41 378.943 372.524 379.873 371.645 380.775L368.784 377.694C369.802 376.734 370.8 375.748 371.749 374.762ZM374.552 377.706L372.028 374.467C373.005 373.444 373.983 372.363 374.939 371.253L377.163 374.78C376.885 375.102 376.524 375.516 376.157 375.932C375.684 376.465 375.173 377.031 374.552 377.706ZM370.898 382.109C371.091 381.915 371.283 381.719 371.476 381.523L371.636 381.36L374.584 384.535C373.515 385.59 372.409 386.638 371.294 387.652C370.311 386.747 369.292 385.799 368.18 384.755C369.113 383.87 370.029 382.978 370.898 382.109ZM377.596 381.437L377.521 381.517L374.804 378.03C375.652 377.107 376.521 376.134 377.387 375.136L379.816 378.989C379.228 379.658 378.732 380.209 378.26 380.723C378.042 380.963 377.819 381.2 377.596 381.437ZM368.113 370.094L371.496 374.437C370.527 375.445 369.521 376.44 368.506 377.395L364.935 373.55C366.004 372.413 367.073 371.251 368.113 370.094ZM362.811 375.776C363.368 375.202 363.956 374.587 364.657 373.844L368.212 377.673C366.967 378.835 365.659 379.983 364.321 381.088C363.079 379.895 361.953 378.8 360.88 377.745C361.535 377.084 362.185 376.422 362.811 375.776ZM368.553 390.064C368.469 390.135 368.385 390.205 368.299 390.275C368.25 390.317 368.198 390.359 368.149 390.401C367.154 389.522 366.089 388.582 365.026 387.649C365.998 386.784 366.959 385.904 367.884 385.034C368.731 385.83 369.513 386.558 370.273 387.261C370.416 387.394 370.561 387.526 370.706 387.658C370.803 387.747 370.901 387.836 370.997 387.924C370.189 388.652 369.367 389.371 368.553 390.064ZM360.141 377.586L360.311 377.754C359.332 378.728 358.35 379.68 357.395 380.584C357.314 380.661 357.232 380.738 357.15 380.814C355.97 379.801 354.683 378.701 353.217 377.457C353.419 377.277 353.621 377.096 353.821 376.915C354.879 375.956 355.895 375.011 356.752 374.207C358.047 375.51 359.124 376.585 360.141 377.586ZM356.835 381.654C356.902 381.593 356.969 381.531 357.035 381.468C357.076 381.43 357.116 381.391 357.157 381.353L357.178 381.371C358.234 382.279 359.325 383.216 360.395 384.143C359.044 385.13 357.669 386.076 356.306 386.954C354.925 386.036 353.86 385.331 352.869 384.679C354.131 383.926 355.393 382.962 356.835 381.654ZM356.673 387.198C358.012 386.329 359.368 385.393 360.705 384.414C361.96 385.503 363.21 386.592 364.418 387.651C363.398 388.554 362.356 389.447 361.318 390.31L360.905 390.031C359.82 389.3 358.699 388.544 357.591 387.805C357.416 387.689 357.241 387.573 357.065 387.456C356.934 387.37 356.803 387.285 356.673 387.198ZM364.722 387.916L364.867 388.043C365.605 388.69 366.339 389.34 367.074 389.991L367.834 390.663C366.934 391.415 366.014 392.158 365.099 392.873C363.798 391.987 362.704 391.245 361.664 390.543C362.669 389.705 363.697 388.823 364.722 387.916ZM368.141 390.935C368.392 391.157 368.642 391.378 368.893 391.599C369.287 391.946 369.681 392.294 370.073 392.642C370.129 392.691 370.201 392.708 370.271 392.684C370.344 392.659 370.402 392.597 370.417 392.526C370.43 392.462 370.407 392.399 370.355 392.352C369.951 391.993 369.545 391.634 369.139 391.277C368.911 391.075 368.682 390.874 368.454 390.672C369.395 389.881 370.349 389.047 371.292 388.196C372.194 389.025 373.041 389.797 373.877 390.554C373.39 390.967 372.955 391.331 372.55 391.661C371.17 392.786 369.701 393.904 368.183 394.98C367.526 394.528 366.867 394.079 366.207 393.631L365.449 393.115C366.363 392.396 367.269 391.664 368.141 390.935ZM373.211 386.425C373.713 385.95 374.236 385.442 374.857 384.829L375.788 385.831C375.873 385.923 375.991 385.905 376.062 385.839C376.131 385.771 376.167 385.645 376.077 385.549L375.143 384.544C375.937 383.755 376.726 382.946 377.491 382.136L379.53 384.754C379.595 384.837 379.699 384.849 379.782 384.785C379.867 384.717 379.908 384.584 379.825 384.478L377.77 381.839C378.541 381.019 379.304 380.18 380.04 379.346L382.061 382.55C381.831 382.807 381.574 383.095 381.321 383.372C379.102 385.796 376.7 388.122 374.182 390.285C373.304 389.49 372.432 388.696 371.589 387.922C372.215 387.358 372.73 386.881 373.211 386.425ZM380.096 378.673L377.665 374.817C378.732 373.58 379.758 372.35 380.714 371.161C380.815 371.036 380.914 370.91 381.014 370.784C381.064 370.719 381.115 370.656 381.166 370.592C381.343 370.864 381.522 371.136 381.7 371.409C382.013 371.887 382.326 372.365 382.637 372.845C382.866 373.199 383.094 373.553 383.32 373.907L383.641 374.405C382.519 375.829 381.326 377.264 380.096 378.673ZM380.934 370.239C379.798 371.67 378.624 373.09 377.441 374.462L375.583 371.515L375.216 370.932C376.282 369.682 377.289 368.437 378.207 367.232C378.296 367.115 378.382 366.998 378.469 366.879C378.516 366.816 378.562 366.753 378.609 366.69C379.378 367.854 380.152 369.04 380.901 370.188L380.934 370.239ZM374.718 370.902C374.296 371.393 373.87 371.878 373.452 372.343C372.957 372.892 372.424 373.465 371.777 374.144L368.385 369.79C369.496 368.547 370.596 367.287 371.654 366.043L374.718 370.902ZM364.389 373.556C363.109 374.916 361.837 376.23 360.606 377.46C360.604 377.463 360.601 377.465 360.599 377.467C359.458 376.344 358.264 375.154 357.049 373.931C358.085 372.959 359.134 371.968 360.149 371.009L361.147 370.065L364.389 373.556ZM365.937 386.288C365.524 386.664 365.108 387.034 364.72 387.381C363.552 386.357 362.309 385.268 361.056 384.182L361.041 384.168C362.166 383.335 363.264 382.481 364.303 381.63C365.545 382.823 366.592 383.818 367.588 384.755C366.963 385.345 366.437 385.833 365.937 386.288ZM361.893 383.028C361.561 383.282 361.219 383.534 360.889 383.778L360.727 383.897C359.693 383 358.668 382.118 357.456 381.076C358.443 380.161 359.472 379.164 360.596 378.033C361.677 379.095 362.795 380.179 364.008 381.347C363.208 382.001 362.534 382.536 361.893 383.028ZM356.465 373.915C355.404 374.919 354.173 376.077 352.911 377.194C352.735 377.045 352.561 376.895 352.385 376.746C352.142 376.539 351.901 376.333 351.658 376.128C351.292 375.818 350.926 375.51 350.559 375.203C350.319 375.002 350.08 374.802 349.842 374.601C351.139 373.55 352.413 372.416 353.734 371.136C354.629 372.054 355.547 372.989 356.465 373.915ZM352.912 377.726L353.615 378.323C354.249 378.86 354.882 379.399 355.514 379.939C355.78 380.166 356.045 380.395 356.31 380.624C356.49 380.779 356.671 380.935 356.851 381.091C355.211 382.604 353.864 383.638 352.497 384.435C351.219 383.595 349.843 382.697 348.052 381.534C349.577 380.513 351.126 379.3 352.912 377.726ZM360.869 369.766L358.218 372.258C357.754 372.695 357.29 373.133 356.827 373.574L356.759 373.638C356.673 373.552 356.587 373.466 356.502 373.379C356.372 373.25 356.242 373.12 356.113 372.989C355.435 372.302 354.764 371.614 354.023 370.853C355.166 369.733 356.33 368.526 357.58 367.162C357.679 367.054 357.777 366.945 357.876 366.836L358.011 366.688L360.869 369.766ZM350.018 379.615C349.244 380.218 348.459 380.784 347.683 381.295C347.532 381.196 347.38 381.097 347.228 380.998C347.04 380.875 346.852 380.753 346.665 380.631C345.999 380.2 345.329 379.773 344.661 379.346C344.346 379.145 344.031 378.943 343.716 378.742C345.575 377.735 347.44 376.501 349.258 375.072C349.315 375.028 349.371 374.981 349.427 374.936C349.459 374.91 349.492 374.884 349.523 374.858C350.471 375.657 351.48 376.51 352.605 377.465C351.662 378.289 350.816 378.993 350.018 379.615ZM361.163 369.489L358.282 366.387C359.546 364.988 360.774 363.58 361.914 362.265C361.933 362.243 361.947 362.218 361.956 362.193L364.901 365.973L361.163 369.489Z" fill="black"/>
<path d="M367.692 336.623C366.63 338.282 365.411 339.884 364.231 341.433C364.004 341.732 363.777 342.03 363.551 342.328C361.865 344.556 360.438 346.418 358.954 348.261C357.715 349.8 356.332 351.257 354.99 352.668C353.516 354.219 352.069 355.738 350.581 357.263C346.972 360.961 344.099 363.68 341.266 366.079C337.699 369.102 334.286 371.512 330.833 373.451C330.382 373.705 329.905 373.963 329.418 374.218C329.307 374.276 329.293 374.395 329.339 374.481C329.385 374.571 329.498 374.632 329.615 374.572C333.158 372.718 336.63 370.393 340.229 367.464C342.946 365.254 345.751 362.689 349.003 359.437C349.243 359.197 349.486 358.952 349.732 358.704C351.336 357.082 352.891 355.459 354.2 354.085C354.449 353.823 354.698 353.563 354.947 353.303C356.225 351.967 357.548 350.587 358.752 349.144C360.114 347.513 361.421 345.792 362.687 344.128L363.591 342.942C364.983 341.116 366.423 339.228 367.731 337.297C367.836 337.142 367.94 336.986 368.042 336.828C368.082 336.766 368.078 336.71 368.067 336.674C368.054 336.63 368.024 336.591 367.981 336.564C367.894 336.51 367.764 336.51 367.692 336.623Z" fill="black"/>
<path d="M334.269 371.059C334.279 371.048 334.29 371.036 334.298 371.023C336.591 367.487 339.246 364.022 342.189 360.728C344.446 358.203 346.894 355.776 349.261 353.429C349.756 352.939 350.252 352.448 350.746 351.955C352.569 350.138 354.455 348.26 356.388 346.437C357.871 345.04 359.036 344.013 360.168 343.107C361.165 342.308 362.294 341.489 363.721 340.528C363.889 340.415 364.058 340.301 364.228 340.189C364.341 340.113 364.34 339.982 364.282 339.895C364.221 339.802 364.113 339.78 364.022 339.841C362.985 340.533 361.63 341.455 360.338 342.46C359.211 343.338 358.042 344.345 356.66 345.629C354.772 347.384 352.911 349.232 351.27 350.864C350.715 351.416 350.157 351.966 349.599 352.517C347.364 354.727 345.053 357.01 342.889 359.357C339.888 362.612 337.179 366.018 334.838 369.476C334.546 369.908 334.246 370.36 333.949 370.819C333.91 370.878 333.906 370.945 333.936 371.003C333.969 371.069 334.04 371.113 334.118 371.117C334.175 371.119 334.228 371.099 334.269 371.059Z" fill="black"/>
</g>
<g opacity="0.1">
<path d="M32.1172 72.8017C32.7509 73.2488 33.6367 73.1686 34.223 72.6094C34.3037 72.5324 34.3825 72.4518 34.4613 72.3729C34.5003 72.334 34.5393 72.2932 34.5782 72.2542L57.2555 49.577L71.4662 35.3662C71.8269 35.0055 72.1894 34.6449 72.5491 34.2833C72.9406 33.8882 73.1356 33.3347 73.0689 32.8041C73.0067 32.3069 72.7298 31.8886 72.2907 31.6271C71.7656 31.3141 71.1443 31.3343 70.5817 31.6797L47.7722 15.6449C47.7207 15.5716 47.6111 15.5092 47.5142 15.454C47.4789 15.4332 47.4463 15.4151 47.4228 15.3988L28.8158 2.31772C29.0688 1.84029 29.0773 1.30322 28.8357 0.835124C28.6113 0.400528 28.204 0.103686 27.7167 0.0224498C27.2033 -0.0632979 26.6707 0.100028 26.2928 0.459792C26.185 0.562195 26.0771 0.668217 25.972 0.773334C25.866 0.879358 25.7609 0.986288 25.6576 1.0914C25.5533 1.19742 25.4491 1.30345 25.344 1.40856L0.459296 26.2933C-0.00559129 26.7889 -0.130063 27.4927 0.142209 28.0858C0.409958 28.6707 1.02108 29.039 1.6614 29.0051C1.88964 28.9923 2.10885 28.927 2.32718 28.8046L17.3792 50.2162C18.0941 51.2337 18.8081 52.2504 19.5239 53.2671C20.247 54.2946 20.9691 55.3231 21.6922 56.3506L31.6783 70.5559C31.2078 71.316 31.3975 72.2922 32.1172 72.8017ZM32.2302 69.937L30.6791 67.7317L33.6389 67.73L33.6384 68.5288L32.2302 69.937ZM13.9964 44.0006L12.8978 42.438L14.9013 40.4345L14.8993 44.001L13.9964 44.0006ZM27.9418 2.32275C27.8712 2.39343 27.8005 2.4641 27.7298 2.53478L5.17038 25.0942C4.84687 25.4177 4.52607 25.744 4.20528 26.072C3.59813 26.69 2.97105 27.3298 2.33402 27.9342C2.20811 27.9732 2.10572 28.0593 2.06219 28.1644C1.76502 28.3511 1.40546 28.3595 1.11937 28.184C0.887594 28.0428 0.739183 27.8165 0.703109 27.5484C0.665226 27.2695 0.755052 26.9914 0.948981 26.7848L26.2813 1.45241C26.3185 1.41526 26.3566 1.3772 26.3937 1.33824C26.8269 0.896023 27.318 0.395809 27.9445 0.846484C28.3836 1.16232 28.3815 1.69486 28.1521 2.06541C28.057 2.11528 27.979 2.20771 27.9418 2.32275ZM2.95511 28.2943L24.9772 6.27225C25.356 5.89346 25.7348 5.51649 26.1144 5.13861C26.4887 4.76616 26.8693 4.38738 27.2499 4.00678C27.6015 3.65518 27.9531 3.30178 28.3011 2.95018L42.0537 12.6178L12.6245 42.047L2.95511 28.2943ZM39.4788 15.857L42.4439 12.8919L43.0468 13.3154L43.0454 15.8532L39.4788 15.857ZM48.0312 20.5399L48.0333 16.8212L52.4196 19.9044L52.4192 20.5366L48.0312 20.5399ZM62.0902 29.9084L62.092 26.7042L66.4791 29.7883L66.4791 29.906L62.0902 29.9084ZM66.7787 30.2056L67.0721 30.2054L69.9438 32.2235L67.5741 34.5931L66.7753 34.5936L66.7787 30.2056ZM67.2741 34.8931L66.7757 35.3915L66.776 34.8934L67.2741 34.8931ZM62.5828 39.5844L62.0844 40.0828L62.0847 39.5847L62.5828 39.5844ZM57.8924 44.2748L57.394 44.7732L57.3943 44.2751L57.8924 44.2748ZM53.2011 48.9661L52.7027 49.4645L52.703 48.9664L53.2011 48.9661ZM48.5098 53.6574L48.0114 54.1558L48.0117 53.6577L48.5098 53.6574ZM43.8194 58.3478L43.321 58.8462L43.3213 58.3481L43.8194 58.3478ZM39.1281 63.0391L38.6297 63.5375L38.63 63.0394L39.1281 63.0391ZM33.9422 63.0421L38.3311 63.0396L38.3306 63.8384L34.7385 67.4305L33.9397 67.431L33.9422 63.0421ZM24.2703 53.6711L24.2679 58.06L23.8802 58.0602L20.7962 53.673L24.2703 53.6711ZM20.5862 53.3743L19.8831 52.3739L19.885 48.9867L24.2739 48.9842L24.2714 53.3731L20.5862 53.3743ZM17.2913 48.6874L15.1982 45.7099L15.1989 44.3006L19.5879 44.2982L19.5854 48.6871L17.2913 48.6874ZM47.4322 16.3995C47.4802 16.4493 47.5426 16.4864 47.6024 16.5244C47.6305 16.5416 47.6576 16.5579 47.682 16.5751L47.7327 16.6113L47.7305 20.5401L43.3417 20.5426L43.3441 16.1537L47.0447 16.1516C47.1307 16.2104 47.2402 16.2837 47.3534 16.3443L47.3715 16.357C47.386 16.3769 47.4077 16.3932 47.4322 16.3995ZM57.1052 25.2226L52.7163 25.2251L52.7188 20.8362L53.745 20.8365L57.1064 23.1993L57.1052 25.2226ZM61.7913 29.9086L57.4024 29.9111L57.4049 25.5222L60.4081 25.5205L61.7923 26.4933L61.7913 29.9086ZM62.0884 34.5971L62.0909 30.2082L66.4798 30.2058L66.4773 34.5947L62.0884 34.5971ZM28.9575 58.0573L24.5686 58.0598L24.571 53.6709L28.9599 53.6684L28.9575 58.0573ZM15.7251 39.6108L19.5905 39.6086L19.588 43.9975L15.1991 44L15.2013 40.1345L15.7251 39.6108ZM16.025 39.3108L19.5936 35.7423L19.5916 39.3088L16.025 39.3108ZM20.7154 34.6204L24.284 31.0519L24.282 34.6184L20.7154 34.6204ZM25.4067 29.9291L28.9744 26.3615L28.9724 29.928L25.4067 29.9291ZM30.0972 25.2387L33.6648 21.671L33.6628 25.2376L30.0972 25.2387ZM34.7885 20.5474L38.3561 16.9797L38.3541 20.5463L34.7885 20.5474ZM43.0428 20.5427L38.6539 20.5452L38.656 16.6798L39.1789 16.1569L43.0443 16.1548L43.0428 20.5427ZM52.4166 25.2261L48.0277 25.2286L48.0302 20.8397L52.4191 20.8372L52.4166 25.2261ZM57.3988 34.5998L57.4013 30.2109L61.7902 30.2084L61.7877 34.5973L57.3988 34.5998ZM28.9592 53.3686L24.5703 53.3711L24.5728 48.9822L28.9617 48.9797L28.9592 53.3686ZM43.0401 25.2305L38.6513 25.233L38.6537 20.8441L43.0426 20.8416L43.0401 25.2305ZM47.7288 25.2288L43.3399 25.2312L43.3424 20.8423L47.7313 20.8399L47.7288 25.2288ZM24.5754 44.2945L28.9643 44.292L28.9618 48.6809L24.5729 48.6834L24.5754 44.2945ZM29.2641 44.2909L31.0627 44.2899L33.653 44.2884L33.6505 48.6774L29.2616 48.6798L29.2641 44.2909ZM33.9556 39.3007L33.958 34.9118L38.3469 34.9094L38.3445 39.2983L33.9556 39.3007ZM38.3434 39.598L38.3409 43.9869L33.952 43.9894L33.9545 39.6005L38.3434 39.598ZM29.2643 43.992L29.2667 39.6031L33.6556 39.6007L33.6531 43.9896L29.2643 43.992ZM33.9527 44.2892L38.3416 44.2867L38.3392 48.6756L33.9503 48.6781L33.9527 44.2892ZM38.6432 39.5988L43.032 39.5963L43.0296 43.9852L38.6407 43.9877L38.6432 39.5988ZM43.0371 30.679L43.0349 34.6078L38.646 34.6103L38.6484 30.2214L43.0373 30.219L43.0371 30.679ZM43.0347 34.9067L43.0322 39.2956L38.6433 39.2981L38.6458 34.9092L43.0347 34.9067ZM47.7234 34.905L47.7209 39.2939L43.332 39.2963L43.3345 34.9075L47.7234 34.905ZM47.7251 30.2163L47.7226 34.6052L43.3337 34.6077L43.3362 30.2188L47.7251 30.2163ZM47.7262 29.9165L43.3373 29.919L43.3397 25.5301L47.7286 25.5276L47.7262 29.9165ZM52.4147 30.2137L52.4122 34.6026L48.0233 34.605L48.0258 30.2161L52.4147 30.2137ZM43.0375 29.9201L38.6486 29.9226L38.6511 25.5337L42.2339 25.5316L43.04 25.5312L43.0375 29.9201ZM33.9582 34.613L33.9607 30.2241L38.3496 30.2216L38.3471 34.6105L33.9582 34.613ZM29.2669 39.3043L29.2693 34.9154L33.6583 34.9129L33.6558 39.3018L29.2669 39.3043ZM24.5765 43.9947L24.5789 39.6058L28.9679 39.6033L28.9654 43.9922L24.5765 43.9947ZM33.6503 48.978L33.6479 53.3669L29.259 53.3694L29.2614 48.9805L33.6503 48.978ZM33.9501 48.977L38.339 48.9745L38.3365 53.3634L33.9476 53.3658L33.9501 48.977ZM43.0294 44.2841L43.0269 48.673L38.638 48.6754L38.6405 44.2865L43.0294 44.2841ZM43.3318 39.5952L47.7207 39.5928L47.7182 43.9817L43.3293 43.9841L43.3318 39.5952ZM52.4111 34.9024L52.4086 39.2913L48.0198 39.2937L48.0222 34.9048L52.4111 34.9024ZM52.4139 29.9139L48.025 29.9164L48.0275 25.5275L52.4164 25.525L52.4139 29.9139ZM52.7135 30.2135L57.1024 30.211L57.1 34.5999L52.7111 34.6024L52.7135 30.2135ZM33.9599 29.9243L33.9624 25.5354L38.3513 25.5329L38.3488 29.9218L33.9599 29.9243ZM29.2695 34.6147L29.272 30.2258L33.6609 30.2233L33.6584 34.6122L29.2695 34.6147ZM28.9671 39.3035L24.5782 39.306L24.5807 34.9171L28.9696 34.9146L28.9671 39.3035ZM24.2758 43.9949L19.8869 43.9973L19.8894 39.6084L24.2783 39.606L24.2758 43.9949ZM33.6477 53.6658L33.6452 58.0547L29.2563 58.0572L29.2588 53.6682L31.6226 53.6669L33.6477 53.6658ZM38.3355 53.6632L38.333 58.052L33.9441 58.0545L33.9466 53.6656L38.3355 53.6632ZM38.6379 48.9743L43.0268 48.9718L43.0243 53.3607L38.6354 53.3632L38.6379 48.9743ZM47.7172 44.2814L47.7147 48.6703L43.3258 48.6728L43.3283 44.2839L47.7172 44.2814ZM52.4085 39.5901L52.406 43.979L48.0171 43.9815L48.0196 39.5926L52.4085 39.5901ZM57.0998 34.8988L57.0973 39.2877L52.7084 39.2902L52.7109 34.9013L57.0998 34.8988ZM52.7137 29.9146L52.7162 25.5257L57.1051 25.5233L57.1026 29.9122L52.7137 29.9146ZM33.9626 25.2365L33.9647 21.3711L34.4885 20.8473L38.3539 20.8452L38.3515 25.2341L33.9626 25.2365ZM29.2722 29.9269L29.2743 26.0615L29.7981 25.5377L33.6635 25.5356L33.661 29.9245L29.2722 29.9269ZM28.9697 34.6158L24.5808 34.6182L24.583 30.7528L25.1059 30.2299L28.9713 30.2278L28.9697 34.6158ZM19.8904 39.3087L19.8926 35.4432L20.4164 34.9194L24.2818 34.9173L24.2793 39.3062L19.8904 39.3087ZM24.2765 44.2946L24.2741 48.6835L19.8852 48.686L19.8876 44.2971L22.5612 44.2956L24.2765 44.2946ZM33.645 58.3536L33.6426 62.7425L29.2537 62.7449L29.2562 58.356L33.645 58.3536ZM38.3337 58.3518L38.3313 62.7407L33.9423 62.7432L33.9448 58.3543L38.3337 58.3518ZM38.6361 53.663L43.025 53.6605L43.0226 58.0494L38.6337 58.0519L38.6361 53.663ZM43.3265 48.9726L47.7155 48.9701L47.713 53.359L43.3241 53.3615L43.3265 48.9726ZM48.0179 44.2813L52.4067 44.2788L52.4043 48.6677L48.0154 48.6702L48.0179 44.2813ZM57.0972 39.5884L57.0947 43.9773L52.7058 43.9798L52.7083 39.5909L57.0972 39.5884ZM57.3996 34.8996L61.7885 34.8971L61.786 39.286L57.3971 39.2884L57.3996 34.8996ZM43.0215 58.3492L43.0211 59.148L39.428 62.741L38.6292 62.7415L38.6317 58.3526L43.0215 58.3492ZM43.3239 53.6603L47.7128 53.6579L47.7124 54.4567L44.1193 58.0497L43.3205 58.0501L43.3239 53.6603ZM52.4032 48.9675L52.4028 49.7663L48.8097 53.3593L48.0109 53.3597L48.0134 48.9708L52.4032 48.9675ZM57.0945 44.2762L57.0941 45.075L53.5011 48.668L52.7023 48.6684L52.7047 44.2795L57.0945 44.2762ZM61.7858 39.5848L61.7863 40.3828L58.1933 43.9758L57.3945 43.9762L57.3969 39.5873L61.7858 39.5848ZM66.4762 34.8944L66.4758 35.6933L62.8828 39.2863L62.084 39.2867L62.0864 34.8978L66.4762 34.8944ZM28.9564 58.3571L28.9539 62.746L27.1752 62.747L24.568 59.0379L24.5684 58.3605L28.9564 58.3571ZM33.639 67.4311L30.4692 67.4329L29.252 65.7011L29.2544 63.0447L33.6433 63.0422L33.639 67.4311ZM34.4377 67.7295L33.9384 68.2288L33.9387 67.7289L34.4377 67.7295ZM57.405 25.2233L57.4061 23.4102L59.9826 25.2219L57.405 25.2233ZM52.719 20.5373L52.7192 20.1153L53.3185 20.537L52.719 20.5373ZM43.3452 15.8539L43.3465 13.5263L46.354 15.6403C46.449 15.7063 46.5432 15.7787 46.64 15.852L43.3452 15.8539ZM14.8986 45.2835L14.2072 44.3003L14.8992 44.2999L14.8986 45.2835ZM19.5835 51.9475L17.5013 48.9862L19.5843 48.985L19.5835 51.9475ZM24.2685 58.6115L24.0911 58.3598L24.2686 58.3597L24.2685 58.6115ZM28.9525 65.2747L27.386 63.0448L28.9546 63.044L28.9525 65.2747ZM32.3749 71.905C32.1948 71.6216 32.1534 71.1869 32.4643 70.8543L70.6273 32.6913L70.6934 32.6252C70.8547 32.462 71.007 32.3062 71.228 32.2445C71.6682 32.1229 71.9896 32.3536 72.1434 32.609C72.3126 32.8887 72.345 33.3162 72.0396 33.6415C72.0323 33.6487 72.0242 33.6569 72.0169 33.6641C72.0088 33.6723 72.0015 33.6796 71.9934 33.6877L71.9644 33.7167C71.8402 33.8408 71.717 33.9641 71.5929 34.0882L35.1706 70.5105C35.0057 70.6754 34.8417 70.8394 34.6777 71.0052C34.3496 71.3351 34.0207 71.6659 33.689 71.9921C33.5567 72.1226 33.4398 72.1996 33.3094 72.2413C32.8691 72.3847 32.5378 72.1621 32.3749 71.905Z" fill="black"/>
<path d="M13.2666 45.6303C13.3753 45.5578 13.398 45.4337 13.3274 45.3287L9.82088 40.1312C9.73219 40.0008 9.57822 40.0027 9.47675 40.0698C9.46226 40.0789 9.44959 40.0898 9.43781 40.1015C9.36441 40.1749 9.35437 40.2809 9.415 40.3724L12.9216 45.5699C13.0102 45.7002 13.1651 45.6992 13.2666 45.6303Z" fill="black"/>
<path d="M8.76378 39.1987C8.86344 39.1407 8.926 39.013 8.8509 38.8853L8.09811 37.5943C8.0212 37.463 7.87809 37.454 7.77572 37.5147C7.75669 37.5265 7.73858 37.5392 7.72317 37.5546C7.65702 37.6208 7.62798 37.724 7.6886 37.8282L8.44049 39.1183C8.51921 39.2496 8.66231 39.2586 8.76378 39.1987Z" fill="black"/>
<path d="M9.06945 41.3934C9.11296 41.3227 9.11482 41.2394 9.07502 41.1634C8.71675 40.4879 8.2996 39.837 7.83624 39.2286C7.78104 39.1553 7.69683 39.12 7.60535 39.1318C7.54466 39.14 7.49031 39.1672 7.45134 39.2062C7.43141 39.2261 7.41508 39.2497 7.4051 39.2742C7.37699 39.3403 7.38873 39.4118 7.4367 39.4743C7.89463 40.0772 8.30815 40.7227 8.66371 41.3918C8.70261 41.4652 8.77052 41.5095 8.84931 41.5122C8.93625 41.5157 9.0214 41.4686 9.06945 41.3934Z" fill="black"/>
<path d="M63.4508 44.4735L60.2239 47.7005C60.1169 47.8074 60.1458 47.9468 60.2282 48.0292C60.3106 48.1116 60.4509 48.1396 60.5569 48.0336L63.7839 44.8066C63.8908 44.6997 63.8619 44.5602 63.7795 44.4779C63.6963 44.3946 63.5568 44.3675 63.4508 44.4735Z" fill="black"/>
<path d="M58.213 50.0284L50.2775 57.9639C50.1706 58.0708 50.1995 58.2102 50.2819 58.2926C50.3643 58.375 50.5046 58.403 50.6106 58.297L58.5461 50.3615C58.653 50.2546 58.6241 50.1151 58.5417 50.0328C58.4585 49.9495 58.3199 49.9215 58.213 50.0284Z" fill="black"/>
<path d="M58.7979 51.3621C58.8803 51.4445 59.0207 51.4725 59.1267 51.3664L61.5598 48.9333C61.6667 48.8264 61.6387 48.6879 61.5554 48.6046C61.4731 48.5222 61.3327 48.4942 61.2267 48.6002L58.7936 51.0333C58.6875 51.1393 58.7146 51.2788 58.7979 51.3621Z" fill="black"/>
</g>
<g opacity="0.1">
<path d="M226.826 41.4164C226.347 40.7086 225.701 40.0983 225.133 39.5816C223.033 37.6723 220.678 36.0557 218.446 34.5935C215.43 32.6182 212.262 30.7671 209.029 29.0914C206.846 27.9604 203.955 26.5276 200.938 25.4748C200.083 25.1763 199.163 24.88 198.235 24.7344L198.228 24.7333C197.748 24.6586 197.092 24.5553 196.656 24.8513C196.574 24.9066 196.508 24.9743 196.461 25.0531C196.457 25.0565 196.452 25.0613 196.447 25.0695C196.092 25.6843 195.856 26.3112 195.672 26.8429C195.426 27.5526 195.178 28.2619 194.931 28.9712L194.581 29.9676C194.205 31.0412 193.815 32.1507 193.438 33.2442L193.37 33.4416C192.476 36.0307 191.551 38.7083 190.88 41.4112C190.08 44.6278 189.771 47.415 189.934 49.9318C190.067 51.9868 190.673 53.9863 191.687 55.7143C192.651 57.358 194.006 58.8056 195.606 59.9008C195.884 60.0906 196.168 60.2696 196.46 60.4378C197.831 61.2294 199.346 61.7765 200.894 62.0328C202.849 62.3578 204.877 62.2282 206.758 61.6584C208.895 61.0112 211.036 59.7707 213.496 57.7551C215.748 55.9094 217.723 53.7762 219.523 51.7456C220.979 50.1028 222.43 48.4066 223.834 46.767C224.32 46.1987 224.807 45.6298 225.295 45.0621C225.752 44.5309 226.198 44.0158 226.62 43.5307L226.689 43.4505C226.696 43.444 226.699 43.4372 226.702 43.4299C226.75 43.362 226.791 43.291 226.834 43.2149L227.122 42.7166C227.358 42.2906 227.066 41.7708 226.826 41.4164ZM195.639 31.8247C195.491 31.6694 195.343 31.5134 195.195 31.3574L195.384 30.8196C195.787 29.6663 196.206 28.4738 196.611 27.2983C197.136 27.9423 197.754 28.5009 198.343 29.018C199.128 29.7068 199.962 30.3854 200.892 31.0915C200.585 31.816 200.278 32.5401 199.971 33.2642C199.689 33.9295 199.407 34.5952 199.126 35.2608C197.978 34.2008 196.837 33.0761 195.639 31.8247ZM218.462 51.3799C217.25 52.7452 215.802 54.3292 214.217 55.7816C212.657 55.5547 211.082 55.1967 209.535 54.7181C210.662 53.5218 211.827 52.1521 213.197 50.414C214.833 50.866 216.486 51.1808 218.111 51.3481C218.215 51.3592 218.319 51.3679 218.423 51.3769L218.462 51.3799ZM196.811 40.8374C195.997 42.8737 195.395 44.5537 194.919 46.1181C193.81 45.1507 192.68 44.0957 191.561 42.982C191.714 42.2724 191.891 41.5459 192.105 40.7622C192.391 39.7097 192.732 38.5776 193.148 37.3027C194.379 38.5687 195.61 39.7579 196.811 40.8374ZM204.511 52.6964C202.737 51.8103 200.941 50.7282 199.174 49.4798C199.651 48.4213 200.161 47.335 200.735 46.1585C200.956 45.7034 201.196 45.2169 201.488 44.6287C201.623 44.7257 201.757 44.8227 201.893 44.9177C203.586 46.1077 205.309 47.1492 207.015 48.0122C207.18 48.0957 207.356 48.1829 207.567 48.2842C207.54 48.326 207.512 48.3679 207.484 48.4097C207.446 48.4676 207.408 48.5256 207.37 48.5841C206.336 50.1377 205.405 51.4854 204.526 52.7037L204.511 52.6964ZM197.06 54.7618C197.405 53.664 197.831 52.5961 198.362 51.3324C198.564 50.852 198.79 50.3348 199.071 49.7068C199.102 49.7294 199.133 49.7512 199.164 49.7739C199.218 49.8127 199.272 49.8518 199.326 49.89C200.99 51.0464 202.691 52.06 204.382 52.9034C204.349 52.9484 204.317 52.9929 204.285 53.0376C204.226 53.1187 204.168 53.2002 204.109 53.2806C203.218 54.494 202.172 55.8925 201.011 57.1468C201.003 57.143 200.995 57.1386 200.988 57.1351C200.971 57.1269 200.955 57.1184 200.938 57.1095C199.659 56.4317 198.355 55.6412 197.06 54.7618ZM198.871 49.5636L198.788 49.7478C198.707 49.9276 198.626 50.1077 198.548 50.2882C197.954 51.6485 197.334 53.1026 196.853 54.6203C195.948 53.9989 195.054 53.3371 194.191 52.6538C194.128 52.6042 194.066 52.5525 194.003 52.5017C193.966 52.4718 193.929 52.4412 193.893 52.4116C193.908 52.1392 193.929 51.8895 193.955 51.6471L193.956 51.6435C194.136 50.0624 194.49 48.3952 195.039 46.5489C196.3 47.6357 197.589 48.65 198.871 49.5636ZM207.703 48.0774C206.015 47.2627 204.299 46.2638 202.602 45.1085C202.289 44.8956 201.961 44.6657 201.599 44.4055C202.474 42.6477 203.351 40.9343 204.022 39.6294C204.234 39.7838 204.41 39.9111 204.575 40.0271C206.444 41.3486 208.338 42.4814 210.204 43.3942C210.324 43.453 210.446 43.5101 210.567 43.5677L210.627 43.596C209.547 45.2724 208.59 46.739 207.703 48.0774ZM197.093 41.0931C197.147 41.1418 197.201 41.1909 197.255 41.239C198.598 42.4245 199.955 43.5171 201.289 44.4868L201.199 44.6681C201.141 44.7825 201.084 44.8977 201.027 45.0124C200.237 46.6081 199.564 48.0238 198.972 49.3378C197.911 48.58 196.839 47.7485 195.786 46.865C195.61 46.7163 195.432 46.5628 195.26 46.4138L195.116 46.2885C195.381 45.4139 195.691 44.4926 196.061 43.4729C196.335 42.7209 196.642 41.9145 197 41.0092C197.032 41.0367 197.062 41.065 197.093 41.0931ZM201.242 57.2656C201.981 56.458 202.667 55.5829 203.252 54.8244C203.662 54.2916 204.092 53.7153 204.603 53.0117C205.956 53.6759 207.329 54.2443 208.684 54.7025C208.808 54.7447 208.932 54.7847 209.057 54.8242L209.089 54.8349C209.077 54.848 209.064 54.8617 209.052 54.8748C209.022 54.9065 208.993 54.9384 208.962 54.9697C207.909 56.0597 206.921 56.9676 205.941 57.745C205.455 58.1305 204.992 58.4616 204.526 58.7573C203.43 58.328 202.326 57.8267 201.242 57.2656ZM204.748 52.8119C205.357 51.967 205.989 51.063 206.626 50.1251C206.968 49.621 207.328 49.0847 207.788 48.3901C209.313 49.1144 210.885 49.7231 212.461 50.2002C212.618 50.2479 212.775 50.2927 212.946 50.341C211.586 52.0616 210.418 53.4284 209.275 54.6361C207.749 54.1498 206.226 53.5358 204.748 52.8119ZM197.918 41.4897C197.639 41.2487 197.364 41.0031 197.098 40.7644C197.731 39.1767 198.409 37.5756 199.064 36.0278L199.213 35.6753L199.262 35.721C199.354 35.8052 199.447 35.8894 199.539 35.9731C200.966 37.2597 202.409 38.4421 203.828 39.4866L203.699 39.7388C202.916 41.2677 202.151 42.7653 201.403 44.2626C200.248 43.423 199.076 42.4902 197.918 41.4897ZM216.411 45.7074L216.485 45.7261C215.867 46.5467 215.139 47.5096 214.404 48.4666C213.902 49.1214 213.49 49.6508 213.112 50.132C211.358 49.6379 209.614 48.9816 207.926 48.1818C208.506 47.3049 209.114 46.3743 209.894 45.1711C210.139 44.7936 210.383 44.4155 210.627 44.0377L210.846 43.6985C212.58 44.5032 214.364 45.1558 216.149 45.6388C216.236 45.6628 216.324 45.685 216.411 45.7074ZM199.023 35.5023C198.603 36.4985 198.106 37.6766 197.607 38.8839C197.357 39.4905 197.128 40.0509 196.909 40.596C195.829 39.6217 194.728 38.5627 193.635 37.4481C193.501 37.312 193.369 37.175 193.236 37.0387C193.701 35.6239 194.201 34.1957 194.686 32.8147C194.789 32.5202 194.892 32.2258 194.995 31.9313L195.104 31.6201C196.465 33.0569 197.748 34.3279 199.023 35.5023ZM194.842 46.3785L194.81 46.4866C194.756 46.6659 194.7 46.852 194.649 47.0357C194.181 48.7054 193.874 50.2123 193.711 51.6444L193.711 51.6483C193.692 51.8222 193.676 52.0116 193.662 52.2253C193.212 51.8604 192.821 51.5342 192.467 51.2296C192.18 50.9833 191.889 50.7286 191.603 50.4723C191.464 50.3476 191.325 50.2232 191.187 50.0977C191.15 50.065 191.114 50.0276 191.074 49.9878C191.039 49.9516 191.003 49.9145 190.965 49.8797C190.963 49.8651 190.96 49.8501 190.955 49.836C190.822 47.8362 191.001 45.688 191.501 43.2703C192.62 44.3786 193.744 45.4239 194.842 46.3785ZM191.035 50.2934C191.166 50.4125 191.297 50.531 191.43 50.6486C191.683 50.8749 191.936 51.0972 192.183 51.3103C192.652 51.7153 193.143 52.1252 193.643 52.5291C193.519 55.2605 194.264 57.0184 194.981 58.0592C192.816 56.1348 191.419 53.5177 191.038 50.6617C191.021 50.532 191.005 50.3973 190.991 50.2528L191.035 50.2934ZM196.774 54.8659C196.707 55.0851 196.644 55.3028 196.586 55.5147C196.363 56.3361 196.237 57.0105 196.188 57.6364C196.155 58.0667 196.139 58.6102 196.296 59.073C196.18 58.9961 196.075 58.9241 195.98 58.856C194.047 57.0405 193.828 54.259 193.877 52.7176C194.833 53.4808 195.807 54.2031 196.774 54.8659ZM196.982 55.0102C198.241 55.8636 199.539 56.6447 200.839 57.331C200.824 57.3473 200.809 57.3632 200.794 57.3795C200.75 57.4266 200.706 57.4739 200.661 57.5203C200.084 58.1172 199.588 58.5626 199.1 58.9215C198.583 59.302 197.977 59.7071 197.346 59.6894C197.34 59.689 197.333 59.6883 197.327 59.688C197.324 59.6878 197.32 59.6873 197.317 59.6871C197.107 59.5744 196.9 59.4551 196.7 59.3328C196.517 59.0671 196.451 58.7149 196.428 58.4659C196.36 57.7106 196.499 56.9423 196.644 56.2901C196.735 55.8801 196.846 55.4617 196.982 55.0102ZM198.271 59.7059C198.871 59.4352 199.403 59.0118 199.799 58.673C200.213 58.319 200.628 57.9196 201.067 57.4512C202.083 57.9796 203.097 58.4486 204.082 58.8471C204.127 58.8651 204.172 58.882 204.217 58.8995C204.233 58.9053 204.249 58.9114 204.264 58.9171C203.762 59.2197 203.282 59.4642 202.798 59.6651C201.717 60.1131 200.655 60.33 199.643 60.3101C199.111 60.2996 198.587 60.2176 198.089 60.0691C197.968 60.0144 197.843 59.9557 197.712 59.8908C197.891 59.8547 198.078 59.7934 198.271 59.7059ZM201.834 60.2567C202.741 60.0012 203.632 59.6001 204.555 59.0293C205.659 59.4561 206.79 59.8249 207.918 60.1269C207.771 60.1912 207.644 60.2444 207.525 60.292C206.231 60.8073 204.883 61.0943 203.519 61.1443C202.088 61.197 200.663 60.9906 199.278 60.5312C200.102 60.5945 200.96 60.5024 201.834 60.2567ZM213.983 55.9946C213.169 56.7284 212.386 57.3671 211.593 57.9455C210.402 58.8138 209.315 59.4747 208.27 59.9653C207.112 59.6672 205.949 59.2971 204.814 58.8657C206.137 58.0078 207.302 56.9394 208.172 56.1012C208.533 55.7542 208.906 55.3772 209.345 54.9172C210.872 55.3967 212.432 55.7595 213.983 55.9946ZM222.561 46.6463L222.458 46.767C221.225 48.2078 219.95 49.698 218.672 51.1431L218.665 51.1508C216.913 51.0036 215.13 50.6843 213.363 50.2023C213.522 49.9998 213.681 49.7973 213.839 49.5936C214.889 48.2425 215.894 46.9147 216.74 45.7921C218.563 46.2479 220.389 46.5298 222.167 46.6295C222.284 46.6362 222.401 46.6403 222.518 46.6446L222.561 46.6463ZM217.721 44.0847C217.363 44.5604 217.005 45.0368 216.646 45.5122C214.725 45.0215 212.818 44.3416 210.98 43.4905C211.694 42.3843 212.407 41.2774 213.119 40.1702C213.338 39.8289 213.558 39.4875 213.778 39.1465C214.404 39.4751 214.925 39.7443 215.418 39.9923C216.822 40.699 218.123 41.3104 219.395 41.8615C218.837 42.6012 218.279 43.3426 217.721 44.0847ZM212.128 41.2642C211.673 41.9718 211.218 42.6797 210.763 43.387C208.967 42.5406 207.145 41.4895 205.347 40.2627C204.952 39.9936 204.556 39.7135 204.136 39.4073C204.403 38.8878 204.671 38.3677 204.939 37.8485C205.266 37.2136 205.593 36.5781 205.919 35.9428L206.451 34.9076C208.736 36.3578 211.129 37.7456 213.564 39.032C213.085 39.7756 212.606 40.5194 212.128 41.2642ZM200.246 36.2734C199.962 36.0234 199.657 35.7485 199.314 35.434C199.605 34.7445 199.898 34.0554 200.19 33.3663C200.49 32.6577 200.79 31.9498 201.09 31.2409C202.375 32.2074 203.798 33.1934 205.563 34.3399C205.736 34.4522 205.911 34.5631 206.085 34.6745L206.246 34.7767L205.533 36.1647C205.002 37.1983 204.472 38.2309 203.941 39.2648C202.719 38.3632 201.476 37.3571 200.246 36.2734ZM216.901 45.578C217.29 45.0619 217.678 44.5451 218.066 44.0287C218.413 43.5673 218.76 43.1057 219.107 42.6446C219.279 42.4164 219.452 42.1876 219.624 41.9594C219.643 41.9675 219.662 41.9759 219.681 41.9845C219.71 41.9978 219.74 42.011 219.77 42.0237C221.167 42.6167 222.248 43.0216 223.273 43.3349C223.837 43.507 224.437 43.6819 225.043 43.7637C224.231 44.6971 223.438 45.6217 222.766 46.4069C220.839 46.3395 218.872 46.0623 216.92 45.5824C216.913 45.5811 216.907 45.5798 216.901 45.578ZM196.31 26.9101C196.31 26.9107 196.31 26.9107 196.309 26.9113C195.887 28.1391 195.45 29.3847 195.029 30.589C194.434 32.2867 193.82 34.0412 193.233 35.7743C192.251 38.6714 191.253 41.7667 190.784 44.9542C190.653 45.8435 190.567 46.709 190.528 47.5264C190.505 48.0017 190.497 48.4426 190.503 48.8741C190.507 49.0879 190.514 49.3047 190.524 49.5186C190.525 49.5443 190.525 49.5759 190.524 49.6096C190.523 49.6975 190.522 49.8071 190.547 49.896C190.765 52.8964 192.032 55.7057 194.116 57.8075C196.316 60.0272 199.357 61.3904 202.46 61.5476C203.84 61.6172 205.216 61.4542 206.548 61.0627C207.847 60.6809 209.192 60.034 210.659 59.0854C213.612 57.1752 216.043 54.6721 218.031 52.4758C219.658 50.6791 221.258 48.8067 222.806 46.995C223.457 46.2329 224.131 45.4443 224.797 44.6729C225.047 44.3834 225.298 44.0943 225.549 43.8061C225.56 43.8067 225.571 43.8071 225.582 43.8078C225.612 43.8096 225.642 43.8114 225.671 43.8114C225.716 43.8117 225.763 43.8109 225.811 43.809C225.044 44.6945 224.271 45.5983 223.523 46.4734C222.589 47.5649 221.624 48.6935 220.664 49.7942C218.862 51.8587 217 53.9933 214.93 55.9257C212.521 58.1743 210.37 59.6844 208.161 60.6779C206.359 61.4878 204.368 61.8651 202.403 61.7677C200.544 61.6758 198.683 61.155 197.021 60.2618C195.356 59.3675 193.895 58.1081 192.796 56.6211C191.645 55.0637 190.859 53.2281 190.524 51.3127C190.331 50.2083 190.275 49.0022 190.348 47.5174C190.413 46.1966 190.586 44.8413 190.876 43.3741C191.434 40.5574 192.321 37.8462 193.181 35.3111C193.762 33.5952 194.372 31.8563 194.961 30.1749C195.327 29.1302 195.705 28.0503 196.073 26.9868C196.106 26.8918 196.14 26.798 196.174 26.7052C196.214 26.7699 196.258 26.8374 196.31 26.9101ZM225.947 43.3728C225.806 43.3884 225.655 43.3919 225.489 43.3846C225.473 43.3815 225.457 43.3808 225.443 43.383C224.926 43.3523 224.389 43.206 223.915 43.077C222.722 42.752 221.569 42.3039 220.698 41.9509C219.447 41.4429 218.105 40.8372 216.595 40.0999C213.363 38.521 210.141 36.7251 207.018 34.7632C203.94 32.829 201.534 31.1237 199.446 29.3973C198.71 28.7895 197.933 28.1209 197.229 27.3586C197.027 27.1394 196.815 26.8991 196.639 26.6293C196.568 26.5217 196.513 26.4241 196.47 26.3302C196.467 26.3246 196.465 26.3178 196.461 26.3119C196.459 26.3045 196.456 26.2965 196.454 26.2882C196.448 26.2707 196.441 26.2522 196.436 26.2344C196.432 26.2203 196.429 26.2054 196.425 26.191L196.418 26.149C196.418 26.1378 196.417 26.1267 196.417 26.1158L196.418 26.1053C196.418 26.0993 196.422 26.0884 196.422 26.0881L196.43 26.0747C196.442 26.0541 196.447 26.0341 196.45 26.0184C196.464 25.9867 196.479 25.9547 196.494 25.9231C196.509 25.9584 196.526 25.9928 196.543 26.0267C196.864 26.6484 197.37 27.1601 197.949 27.7182C198.837 28.5733 199.81 29.3428 200.557 29.918C201.637 30.7489 202.832 31.6018 204.21 32.5254C207.121 34.4772 210.258 36.3571 213.533 38.1122C216.8 39.8631 219.368 41.0672 221.861 42.0158C222.727 42.345 223.754 42.7138 224.808 42.9481C225.285 43.0544 225.874 43.1852 226.4 43.1065C226.389 43.1262 226.377 43.1466 226.365 43.1661L226.361 43.174L226.284 43.2636C226.273 43.2699 226.253 43.2801 226.236 43.2896C226.219 43.2986 226.207 43.3048 226.198 43.3106C226.161 43.3249 226.122 43.3373 226.082 43.3472C226.018 43.3638 225.979 43.3693 225.947 43.3728ZM226.736 42.5209L226.727 42.5327C226.722 42.5378 226.718 42.543 226.713 42.5472C226.705 42.5548 226.697 42.5619 226.689 42.5689L226.68 42.5747C226.672 42.5797 226.662 42.5875 226.655 42.5913L226.607 42.6164C226.601 42.6194 226.598 42.6213 226.596 42.6224C226.593 42.6231 226.589 42.6247 226.582 42.6264C226.537 42.6423 226.491 42.6549 226.444 42.665C226.217 42.7128 225.891 42.69 225.717 42.6726C224.91 42.5904 224.102 42.3408 223.342 42.0909C220.669 41.2137 218.148 40.0019 215.822 38.8233C212.751 37.2677 209.646 35.4994 206.594 33.567C204.42 32.1907 201.877 30.5163 199.51 28.5353C198.826 27.9637 198.108 27.3358 197.487 26.6167C197.325 26.4295 197.119 26.1784 196.959 25.8958C196.843 25.6918 196.793 25.5414 196.789 25.3908C196.787 25.3449 196.797 25.3102 196.824 25.2706L196.833 25.2579C196.84 25.2501 196.846 25.2424 196.853 25.2356C196.857 25.2328 196.863 25.2272 196.87 25.2224L196.882 25.2123C196.894 25.2037 196.905 25.1957 196.918 25.1892C196.936 25.1801 196.954 25.1709 196.972 25.1621L196.976 25.1599C196.98 25.1589 196.985 25.1571 196.993 25.1546C197.04 25.139 197.087 25.1262 197.134 25.1167C197.218 25.1001 197.314 25.0914 197.443 25.0899C198.134 25.0823 198.82 25.2642 199.581 25.4843C201.921 26.1618 204.152 27.1545 206.78 28.4354C209.801 29.9079 212.908 31.6284 216.013 33.5491C219.117 35.4692 221.409 37.0577 223.445 38.7005C224.151 39.2704 224.975 39.9595 225.725 40.7497C225.941 40.9766 226.19 41.2502 226.407 41.5565C226.495 41.6808 226.567 41.7936 226.625 41.9016C226.687 42.0166 226.713 42.0721 226.744 42.1731C226.774 42.2722 226.774 42.287 226.778 42.358L226.779 42.3779C226.781 42.4202 226.764 42.4705 226.749 42.4987C226.746 42.5067 226.74 42.5142 226.736 42.5209Z" fill="black"/>
<path d="M218.311 53.9369C218.26 53.891 218.193 53.8951 218.149 53.9455C217.38 54.8146 216.532 55.6219 215.625 56.3453C215.592 56.3719 215.577 56.4075 215.583 56.4458C215.588 56.4823 215.613 56.516 215.648 56.5362C215.654 56.5396 215.661 56.5427 215.667 56.5458C215.711 56.5632 215.757 56.5558 215.794 56.5267C216.704 55.8005 217.556 54.9903 218.326 54.1186C218.38 54.0565 218.359 53.9789 218.311 53.9369Z" fill="black"/>
<path d="M215.336 56.8394C215.295 56.7914 215.217 56.7689 215.155 56.8224C214.89 57.0487 214.617 57.2695 214.341 57.4797C214.307 57.5054 214.291 57.5397 214.296 57.5773C214.301 57.6144 214.326 57.649 214.362 57.6696C214.367 57.6726 214.373 57.675 214.378 57.6775C214.423 57.6962 214.47 57.6903 214.508 57.6615C214.785 57.4505 215.06 57.2288 215.325 57.0014C215.376 56.9581 215.381 56.8915 215.336 56.8394Z" fill="black"/>
<path d="M213.613 58.2733C213.568 58.2546 213.521 58.2608 213.483 58.2901L212.838 58.7843C212.786 58.8237 212.778 58.8865 212.817 58.938C212.828 58.9528 212.843 58.9651 212.859 58.9745C212.902 58.9991 212.957 59.0019 213.005 58.9656L213.651 58.4714C213.684 58.4457 213.7 58.4111 213.695 58.3734C213.69 58.3315 213.657 58.2919 213.613 58.2733Z" fill="black"/>
<path d="M215.161 57.8896C215.118 57.875 215.074 57.8834 215.039 57.9135L213.756 59.0191C213.724 59.047 213.709 59.0853 213.716 59.1243C213.723 59.1599 213.747 59.1927 213.78 59.2116C213.788 59.2159 213.795 59.2194 213.804 59.222C213.846 59.2367 213.891 59.2282 213.926 59.1981L215.209 58.0925C215.241 58.0647 215.256 58.0264 215.248 57.987C215.24 57.9438 215.207 57.905 215.161 57.8896Z" fill="black"/>
<path d="M191.305 38.2578C191.349 38.2481 191.382 38.2179 191.396 38.1738C191.767 37.026 192.165 35.8694 192.58 34.7363C192.594 34.6959 192.588 34.6576 192.564 34.6278C192.536 34.5945 192.487 34.5774 192.44 34.586C192.395 34.5938 192.359 34.6235 192.342 34.6677C191.928 35.8023 191.53 36.9589 191.159 38.1073C191.145 38.1484 191.154 38.1889 191.18 38.2183C191.189 38.2278 191.199 38.236 191.209 38.242C191.237 38.2588 191.271 38.2648 191.305 38.2578Z" fill="black"/>
<path d="M191.172 38.7284C191.187 38.689 191.182 38.6504 191.158 38.6209C191.131 38.5873 191.082 38.5702 191.035 38.5779C190.989 38.5854 190.952 38.6154 190.935 38.6593C190.793 39.0315 190.666 39.4155 190.557 39.7997C190.54 39.861 190.569 39.9094 190.612 39.9343C190.621 39.9397 190.632 39.9443 190.642 39.9473C190.701 39.9641 190.775 39.9403 190.797 39.8636C190.904 39.4811 191.031 39.0995 191.172 38.7284Z" fill="black"/>
<path d="M190.956 37.5621C190.969 37.5204 190.96 37.4795 190.931 37.4497C190.899 37.4168 190.85 37.402 190.804 37.4131C190.762 37.4235 190.73 37.4542 190.717 37.498L190.265 39.0271C190.253 39.0688 190.262 39.1097 190.29 39.1395C190.298 39.1481 190.308 39.1559 190.318 39.1616C190.347 39.1784 190.383 39.1842 190.417 39.176C190.459 39.1656 190.491 39.135 190.504 39.0912L190.956 37.5621Z" fill="black"/>
<path d="M210.522 29.2629C208.825 28.2676 207.058 27.347 205.271 26.5269C205.197 26.493 205.125 26.5344 205.098 26.5939C205.072 26.6505 205.09 26.7082 205.141 26.7378C205.145 26.7399 205.148 26.7419 205.153 26.7437C206.938 27.5627 208.703 28.4832 210.398 29.4762C210.399 29.4766 210.399 29.4766 210.399 29.4769C210.437 29.4988 210.48 29.4996 210.516 29.4792C210.556 29.4566 210.582 29.4118 210.582 29.3654C210.583 29.3235 210.561 29.286 210.522 29.2629Z" fill="black"/>
<path d="M213.169 30.6609C212.526 30.2858 211.859 29.9346 211.19 29.6115C211.115 29.5753 211.046 29.617 211.018 29.6746C210.99 29.7329 211.008 29.7924 211.062 29.8234C211.065 29.8251 211.068 29.8268 211.07 29.8284C211.722 30.1426 212.37 30.4858 212.998 30.8483C213.014 30.8574 213.03 30.8638 213.045 30.8752C213.083 30.8974 213.126 30.8982 213.163 30.8772C213.203 30.8546 213.229 30.8098 213.228 30.7631C213.229 30.72 213.207 30.6831 213.169 30.6609Z" fill="black"/>
</g>
<g opacity="0.1">
<path d="M335.547 253.585C335.418 254.117 335.273 254.653 335.131 255.172C334.963 255.788 334.79 256.426 334.645 257.059C334.565 257.404 334.488 257.767 334.41 258.17C334.301 258.786 334.496 259.392 334.93 259.792C335.155 260 335.41 260.118 335.679 260.19C335.973 260.269 336.283 260.293 336.589 260.315L336.656 260.319C338.129 260.43 339.509 260.372 340.76 260.148C341.426 260.028 342.002 259.861 342.522 259.64C343.063 259.409 343.616 259.084 344.212 258.646C345.348 257.812 346.287 256.788 347.006 255.602C347.399 254.954 347.679 254.362 347.862 253.791C348.093 253.073 348.111 252.455 347.918 251.954C347.701 251.397 347.225 250.98 346.501 250.716C345.923 250.506 345.303 250.378 344.703 250.255C344.548 250.223 344.394 250.192 344.242 250.159C343.419 249.982 342.582 249.817 341.754 249.669C341.072 249.547 340.366 249.421 339.658 249.412C338.374 249.395 337.263 249.854 336.613 250.669C336.055 251.368 335.85 252.271 335.651 253.142C335.616 253.293 335.582 253.441 335.547 253.585ZM336.073 253.817C336.23 253.133 336.392 252.425 336.648 251.768C336.954 250.98 337.589 250.404 338.436 250.146C339.544 249.808 340.749 250.048 341.915 250.28C342.072 250.312 342.227 250.343 342.378 250.371C343.139 250.515 343.909 250.674 344.668 250.844C344.795 250.873 344.925 250.9 345.056 250.927C345.579 251.036 346.118 251.148 346.59 251.376C347.151 251.648 347.456 252.092 347.469 252.663C347.483 253.26 347.254 253.841 347.027 254.33C346.499 255.475 345.762 256.501 344.837 257.377C343.843 258.319 342.819 258.965 341.797 259.298C340.79 259.626 339.642 259.785 338.187 259.795C337.555 259.8 336.917 259.771 336.293 259.711L336.277 259.71C336.018 259.686 335.772 259.662 335.55 259.535C335.34 259.416 335.173 259.239 335.067 259.021C334.963 258.808 334.928 258.556 334.972 258.312C335.196 257.166 335.506 256.024 335.806 254.919L335.812 254.895C335.906 254.539 335.991 254.172 336.073 253.817Z" fill="black"/>
<path d="M349.78 292.43C349.955 291.897 350.123 291.371 350.294 290.834C350.641 289.742 350.984 288.636 351.313 287.544C351.959 285.4 352.581 283.214 353.161 281.049C354.33 276.691 355.379 272.24 356.279 267.819C356.31 267.666 356.342 267.513 356.375 267.359C356.453 266.99 356.534 266.608 356.595 266.23C356.662 265.803 356.505 265.395 356.175 265.138C356.17 265.134 356.164 265.131 356.16 265.129C356.149 265.119 356.138 265.108 356.125 265.099C356.085 265.07 356.045 265.043 356.003 265.014C355.748 264.84 355.485 264.659 355.545 264.332C355.547 264.319 355.551 264.306 355.555 264.292L355.562 264.264C355.589 264.151 355.617 264.038 355.647 263.925L357.76 255.456L358.298 254.901C358.369 254.828 358.397 254.726 358.372 254.629C358.346 254.529 358.271 254.449 358.17 254.418C358.141 254.409 358.113 254.401 358.083 254.393C358.073 254.39 358.062 254.387 358.051 254.383C358.131 254.055 358.211 253.727 358.29 253.399L358.324 253.261C358.405 252.926 358.498 252.545 358.274 252.17C358.086 251.857 357.741 251.698 357.436 251.558L357.381 251.533C357 251.356 356.613 251.211 356.228 251.099C355.826 250.983 355.407 250.899 354.984 250.853C354.57 250.807 354.168 250.772 353.81 250.854C353.468 250.932 353.177 251.19 353.05 251.528C353.014 251.624 352.991 251.725 352.969 251.823C352.961 251.856 352.954 251.889 352.947 251.92L352.672 253.064C352.664 253.062 352.656 253.061 352.648 253.059C352.62 253.053 352.592 253.048 352.564 253.043C352.448 253.022 352.34 253.06 352.273 253.145C352.205 253.232 352.193 253.351 352.241 253.462C352.3 253.596 352.349 253.737 352.395 253.874C352.412 253.924 352.429 253.974 352.446 254.023C352.446 254.026 352.444 254.027 352.443 254.03C352.213 254.698 351.921 255.352 351.638 255.984C351.556 256.167 351.474 256.349 351.394 256.533C350.726 255.613 350.545 254.435 350.371 253.295C350.352 253.173 350.333 253.051 350.314 252.93C350.09 251.513 349.744 249.914 348.484 248.876C347.678 248.212 346.713 247.837 345.961 247.585C344.954 247.247 343.906 246.992 342.845 246.828C341.765 246.661 340.682 246.585 339.625 246.601C338.571 246.617 337.742 246.734 337.017 246.969C336.108 247.263 335.382 247.752 334.86 248.422C334.245 249.213 333.927 250.164 333.654 251.072C333.344 252.101 333.054 253.172 332.77 254.344C332.674 254.736 332.584 255.137 332.498 255.525C332.343 256.22 332.182 256.938 331.983 257.633C331.801 258.263 331.588 258.897 331.383 259.51C331.269 259.851 331.151 260.204 331.039 260.553C330.739 261.488 330.436 262.464 330.137 263.452C329.563 265.352 328.987 267.369 328.423 269.447C327.378 273.298 326.37 277.371 325.428 281.553C325.213 282.508 325 283.474 324.795 284.426C324.762 284.58 324.726 284.733 324.69 284.888C324.526 285.594 324.356 286.325 324.443 287.057C324.533 287.82 324.838 288.537 325.326 289.13C325.881 289.807 326.606 290.15 327.426 290.496C329.835 291.516 332.4 292.39 335.194 293.138C336.448 293.474 337.747 293.785 339.099 294.072C341.086 294.495 343.087 294.839 345.044 295.093C345.926 295.208 346.669 295.223 347.432 294.926C348.174 294.636 348.806 294.143 349.258 293.497C349.473 293.193 349.644 292.843 349.78 292.43ZM333.04 255.739C333.118 255.389 333.2 255.025 333.285 254.671C333.553 253.56 333.84 252.485 334.137 251.476C334.389 250.623 334.674 249.657 335.241 248.875C336.332 247.369 338.321 247.178 339.932 247.18C341.554 247.182 343.145 247.391 344.681 247.802C345.143 247.926 345.601 248.069 346.053 248.23C346.724 248.468 347.697 248.868 348.404 249.588C348.858 250.049 349.188 250.649 349.413 251.422C349.596 252.051 349.697 252.711 349.794 253.349C349.907 254.09 350.024 254.857 350.271 255.585C350.502 256.264 350.837 256.836 351.264 257.286C351.328 257.353 351.434 257.384 351.536 257.365C351.624 257.349 351.692 257.298 351.723 257.224C351.863 256.893 352.01 256.56 352.154 256.239C352.413 255.66 352.679 255.062 352.902 254.456L357.146 255.523L355.13 263.602C355.115 263.663 355.099 263.723 355.084 263.785C355.053 263.908 355.022 264.03 354.993 264.153C354.954 264.322 354.946 264.474 354.972 264.619C355.048 265.048 355.381 265.281 355.701 265.507L355.792 265.571C356.114 265.839 356.03 266.203 355.941 266.59C355.925 266.656 355.911 266.723 355.897 266.789C355.791 267.322 355.683 267.855 355.573 268.387C355.351 269.458 355.118 270.545 354.878 271.62C354.405 273.747 353.894 275.897 353.357 278.008C352.281 282.249 351.063 286.512 349.736 290.68C349.537 291.309 349.382 291.787 349.237 292.233C349.108 292.624 348.942 292.958 348.727 293.251C348.303 293.831 347.685 294.265 346.983 294.473C346.234 294.695 345.464 294.584 344.718 294.477C344.641 294.465 344.563 294.454 344.485 294.443C343.554 294.313 342.6 294.16 341.65 293.99C337.54 293.252 333.668 292.229 330.14 290.949C329.18 290.601 328.301 290.255 327.456 289.89C326.663 289.549 326.043 289.189 325.597 288.543C325.184 287.944 324.97 287.217 324.995 286.498C325.007 286.159 325.082 285.82 325.155 285.493C325.173 285.416 325.189 285.339 325.206 285.262C325.306 284.79 325.407 284.318 325.511 283.847C326.375 279.879 327.309 275.962 328.288 272.202C329.388 267.981 330.473 264.21 331.606 260.675C331.716 260.333 331.832 259.985 331.945 259.65C332.139 259.071 332.339 258.472 332.513 257.876C332.721 257.169 332.883 256.442 333.04 255.739ZM352.938 253.705C354.49 254.001 356.042 254.382 357.553 254.84L357.406 254.992L353.004 253.884C352.982 253.827 352.96 253.768 352.938 253.705ZM357.732 253.245C357.653 253.57 357.574 253.895 357.496 254.221C356.101 253.806 354.669 253.455 353.24 253.177L353.426 252.402C353.44 252.342 353.453 252.273 353.467 252.203C353.512 251.963 353.564 251.69 353.711 251.546C353.897 251.365 354.206 251.382 354.479 251.397C354.514 251.399 354.548 251.401 354.58 251.403C354.909 251.417 355.257 251.464 355.612 251.542C356.398 251.716 357.065 251.968 357.592 252.291C357.893 252.476 357.855 252.738 357.763 253.118L357.732 253.245Z" fill="black"/>
<path d="M335.995 264.815C334.879 264.608 333.772 265.166 333.305 266.171C333.115 266.578 332.976 267.022 332.84 267.451C332.791 267.606 332.743 267.758 332.693 267.909C332.493 268.51 332.287 269.148 332.082 269.804C331.302 272.29 330.544 274.948 329.766 277.93C329.419 279.26 329.083 280.599 328.769 281.91C328.616 282.549 328.466 283.183 328.326 283.797C328.205 284.322 328.096 284.884 328.183 285.48C328.343 286.565 329.044 287.548 330.014 288.047C330.474 288.283 330.986 288.433 331.483 288.578C331.626 288.621 331.768 288.662 331.908 288.706C332.58 288.914 333.281 289.122 334.05 289.34C334.686 289.521 335.326 289.697 335.968 289.869C337.485 290.275 339.009 290.661 340.498 291.037C341.258 291.229 342.019 291.421 342.778 291.616C342.86 291.637 342.942 291.659 343.024 291.681C343.511 291.811 344.015 291.948 344.541 291.873C345.011 291.807 345.486 291.598 345.914 291.268C346.333 290.946 346.697 290.526 346.997 290.019C347.305 289.499 347.479 288.935 347.647 288.389C348.647 285.142 349.384 282.651 350.041 280.314C350.952 277.071 351.581 274.582 352.08 272.246C352.106 272.127 352.134 272.006 352.163 271.884C352.273 271.422 352.386 270.943 352.349 270.473C352.307 269.946 352.09 269.436 351.739 269.038C351.322 268.565 350.784 268.365 350.263 268.219C349.475 267.998 348.678 267.779 347.892 267.571C344.737 266.731 341.519 265.964 338.328 265.292C337.564 265.131 336.781 264.971 335.995 264.815ZM333.455 266.729C333.675 266.097 333.97 265.694 334.407 265.423C334.854 265.146 335.389 265.047 335.914 265.145C338.997 265.755 342.094 266.448 345.117 267.205C346.111 267.454 347.112 267.713 348.107 267.98C348.633 268.121 349.157 268.263 349.676 268.408C349.75 268.429 349.826 268.448 349.9 268.469C350.454 268.616 350.978 268.757 351.387 269.161C351.761 269.531 351.989 270.041 352.012 270.56C352.024 270.829 351.973 271.084 351.917 271.355L351.905 271.411C351.844 271.713 351.78 272.013 351.715 272.313C351.587 272.905 351.451 273.507 351.297 274.157C351.009 275.371 350.684 276.651 350.304 278.067C349.679 280.393 348.953 282.912 348.021 285.991C347.831 286.618 347.64 287.244 347.448 287.87C347.413 287.983 347.379 288.097 347.345 288.212C347.215 288.657 347.079 289.116 346.871 289.535C346.612 290.053 345.871 291.285 344.572 291.524C344.072 291.615 343.579 291.481 343.1 291.351C343.01 291.327 342.919 291.301 342.828 291.278C342.148 291.103 341.468 290.931 340.787 290.759L340.667 290.729C339.316 290.388 337.919 290.035 336.548 289.672C334.923 289.24 333.595 288.867 332.37 288.494C332.23 288.451 332.088 288.409 331.947 288.367C331.448 288.218 330.932 288.064 330.445 287.872C329.94 287.673 329.492 287.34 329.152 286.907C328.822 286.489 328.602 285.987 328.518 285.455C328.425 284.867 328.556 284.296 328.672 283.792C328.947 282.596 329.246 281.348 329.563 280.085C330.261 277.295 330.961 274.717 331.704 272.204C332.103 270.85 332.485 269.622 332.868 268.452C333.068 267.855 333.264 267.274 333.455 266.729Z" fill="black"/>
<path d="M338.147 267.789C338.147 267.789 338.149 267.789 338.15 267.79L346.689 269.892C346.796 269.919 346.874 269.846 346.894 269.765C346.914 269.685 346.881 269.593 346.775 269.564L338.236 267.461C338.13 267.435 338.051 267.508 338.032 267.588C338.011 267.668 338.045 267.761 338.147 267.789Z" fill="black"/>
<path d="M340.679 269.989L342.152 270.304C342.214 270.317 342.273 270.298 342.314 270.253C342.357 270.205 342.372 270.136 342.354 270.077C342.336 270.024 342.293 269.987 342.235 269.974L340.762 269.66C340.653 269.637 340.575 269.714 340.557 269.798C340.541 269.874 340.575 269.961 340.67 269.987C340.672 269.988 340.676 269.989 340.679 269.989Z" fill="black"/>
<path d="M337.441 270.437C337.335 270.41 337.257 270.482 337.237 270.562C337.216 270.643 337.251 270.737 337.355 270.765C340.26 271.5 343.173 272.353 346.015 273.302C346.018 273.303 346.022 273.304 346.026 273.305C346.12 273.33 346.192 273.272 346.217 273.199C346.244 273.118 346.216 273.011 346.109 272.976C343.264 272.026 340.347 271.172 337.441 270.437Z" fill="black"/>
<path d="M332.503 280.247C332.51 280.249 332.517 280.251 332.525 280.252C336.144 280.758 339.774 281.417 343.315 282.211C344.299 282.432 345.307 282.669 346.31 282.918C346.416 282.945 346.495 282.873 346.515 282.791C346.535 282.71 346.501 282.619 346.396 282.59C342.847 281.71 339.231 280.967 335.646 280.383C334.651 280.221 333.627 280.066 332.601 279.923C332.536 279.914 332.476 279.938 332.435 279.99C332.395 280.042 332.383 280.111 332.405 280.165C332.423 280.205 332.457 280.234 332.503 280.247Z" fill="black"/>
<path d="M335.387 282.701L340.152 283.582C340.26 283.603 340.342 283.524 340.358 283.437C340.375 283.345 340.323 283.269 340.232 283.252L335.468 282.371C335.36 282.35 335.278 282.429 335.262 282.517C335.246 282.603 335.291 282.675 335.373 282.697C335.377 282.699 335.383 282.7 335.387 282.701Z" fill="black"/>
<path d="M343.119 287.477L333.126 285.315C333.065 285.302 333.006 285.321 332.965 285.365C332.922 285.413 332.906 285.482 332.925 285.54C332.94 285.591 332.98 285.626 333.034 285.641C333.037 285.642 333.04 285.642 333.043 285.643L343.035 287.805C343.144 287.829 343.222 287.753 343.24 287.669C343.258 287.591 343.223 287.501 343.119 287.477Z" fill="black"/>
<path d="M354.904 277.704C354.93 277.598 354.856 277.515 354.778 277.5C354.697 277.479 354.601 277.513 354.575 277.618L352.866 284.437C352.84 284.542 352.91 284.619 352.99 284.641C352.991 284.641 352.992 284.641 352.993 284.642C353.073 284.662 353.169 284.628 353.195 284.523L354.904 277.704Z" fill="black"/>
<path d="M352.808 285.196C352.807 285.196 352.807 285.196 352.806 285.195C352.726 285.174 352.627 285.207 352.597 285.31L352.083 287.138C352.054 287.242 352.121 287.319 352.2 287.341C352.201 287.341 352.201 287.341 352.202 287.342C352.283 287.363 352.381 287.33 352.411 287.227L352.925 285.399C352.955 285.296 352.889 285.219 352.808 285.196Z" fill="black"/>
<path d="M353.105 286.68C353.128 286.705 353.157 286.723 353.191 286.732C353.218 286.739 353.248 286.741 353.277 286.735C353.337 286.723 353.384 286.681 353.404 286.622L354.349 283.817C354.368 283.761 354.358 283.705 354.321 283.664C354.28 283.619 354.214 283.597 354.15 283.61C354.089 283.622 354.042 283.664 354.022 283.723L353.078 286.528C353.059 286.582 353.068 286.638 353.105 286.68Z" fill="black"/>
<path d="M327.456 272.423C328.033 269.567 328.752 266.703 329.593 263.912C329.624 263.81 329.561 263.733 329.481 263.709C329.401 263.683 329.297 263.715 329.266 263.821C328.424 266.615 327.704 269.481 327.126 272.341C327.114 272.404 327.133 272.462 327.18 272.503C327.202 272.523 327.229 272.536 327.256 272.543C327.289 272.552 327.324 272.552 327.356 272.541C327.407 272.524 327.444 272.481 327.456 272.423Z" fill="black"/>
<path d="M327.097 272.865C327.053 272.819 326.984 272.8 326.923 272.816C326.865 272.831 326.823 272.873 326.806 272.932L326.366 274.484C326.349 274.542 326.363 274.599 326.402 274.64C326.425 274.663 326.453 274.68 326.485 274.688C326.514 274.696 326.546 274.696 326.577 274.689C326.634 274.674 326.677 274.632 326.694 274.573L327.134 273.021C327.151 272.963 327.137 272.906 327.097 272.865Z" fill="black"/>
<path d="M326.64 270.141C326.591 270.099 326.521 270.084 326.463 270.105C326.412 270.122 326.376 270.166 326.365 270.224L325.654 273.93C325.642 273.993 325.662 274.052 325.71 274.093C325.732 274.112 325.758 274.125 325.785 274.133C325.818 274.142 325.854 274.141 325.886 274.13C325.938 274.113 325.974 274.069 325.984 274.011L326.696 270.305C326.707 270.241 326.687 270.182 326.64 270.141Z" fill="black"/>
</g>
</svg>
