<svg width="22" height="22" viewBox="0 0 22 22" fill="none" xmlns="http://www.w3.org/2000/svg">
<path d="M17.0857 13.6692L17.0857 13.6692L17.0877 13.6725C17.3256 14.0629 17.3662 14.5181 17.2096 14.9336C17.0488 15.3604 16.7215 15.6769 16.3023 15.8146L16.3023 15.8146L16.2982 15.816C14.5995 16.3852 12.8101 16.6663 11.0181 16.6663C9.22613 16.6663 7.43805 16.3852 5.74134 15.808L5.73983 15.8075C5.24592 15.6406 4.91682 15.313 4.78502 14.9451L4.78504 14.9451L4.78289 14.9392C4.64065 14.5523 4.67875 14.1101 4.94189 13.6684C4.94223 13.6678 4.94258 13.6672 4.94292 13.6666L5.86654 12.1395L5.86662 12.1395L5.87262 12.1292C6.01488 11.8854 6.1275 11.573 6.20403 11.2916C6.28042 11.0106 6.34145 10.6847 6.34145 10.4038V8.08467C6.34145 6.25656 7.40512 4.66657 8.95048 3.89785L9.15797 3.79464L9.27107 3.59236C9.61705 2.97359 10.2669 2.58301 10.9906 2.58301C11.7299 2.58301 12.3597 2.96111 12.7027 3.56788L12.8191 3.77378L13.0325 3.87567C14.6071 4.62734 15.6948 6.23174 15.6948 8.08467V10.4038C15.6948 10.6847 15.7558 11.0105 15.832 11.2919C15.9086 11.575 16.0203 11.886 16.1592 12.1307L16.164 12.1392L16.169 12.1475L17.0857 13.6692Z" stroke="black" stroke-width="1.5"/>
<path d="M9.39868 18.9857C9.38547 18.9734 9.37242 18.9607 9.35954 18.9478L9.38885 18.9503C9.3892 18.9503 9.38956 18.9503 9.38992 18.9504C9.92394 18.9972 10.47 19.0255 11.0184 19.0255C11.5582 19.0255 12.0958 18.9971 12.6212 18.9502L12.6212 18.9502L12.6241 18.9499C12.6322 18.9492 12.6405 18.9484 12.649 18.9476C12.236 19.3902 11.6488 19.6663 11 19.6663C10.4069 19.6663 9.82328 19.4249 9.41651 19.0033L9.40782 18.9943L9.39868 18.9857Z" stroke="black"/>
</svg>
