<svg width="32" height="32" viewBox="0 0 32 32" fill="none" xmlns="http://www.w3.org/2000/svg">
<path d="M16.0007 13.0659C13.1756 13.0659 10.7775 14.9281 9.96875 17.4894C13.2054 15.9362 15.2441 17.5652 16.3066 18.4145C16.4029 18.4915 16.494 18.5645 16.5806 18.6306C16.6808 18.7072 16.7813 18.7875 16.8878 18.8727C18.0327 19.788 19.4458 20.9173 22.3069 18.9179C22.0647 15.6504 19.3289 13.0659 16.0007 13.0659Z" fill="#025473"/>
<path d="M19.4356 21.9361C17.6592 21.9362 16.4375 20.9592 15.6937 20.3646C15.5974 20.2876 15.5064 20.2146 15.4198 20.1486C15.3196 20.072 15.219 19.9916 15.1125 19.9065C13.9676 18.9912 12.5544 17.8621 9.69336 19.8613C9.93555 23.1287 12.6714 25.7132 15.9997 25.7132C18.8246 25.7132 21.2225 23.8513 22.0314 21.2903C21.0604 21.7564 20.197 21.9361 19.4356 21.9361Z" fill="#025473"/>
<path d="M28.5164 8.68994H3.48455H2.5293V29.2884C2.5293 30.7836 3.74573 32 5.24092 32H26.7601C28.2553 32 29.4717 30.7836 29.4717 29.2884V8.68994H28.5164ZM16.0007 27.6241C11.4603 27.6241 7.7663 23.9301 7.7663 19.3897C7.7663 14.8493 11.4602 11.1553 16.0007 11.1553C20.5412 11.1553 24.2351 14.8492 24.2351 19.3897C24.2351 23.9302 20.5412 27.6241 16.0007 27.6241Z" fill="#025473"/>
<path d="M26.7601 0H5.24092C3.74573 0 2.5293 1.21644 2.5293 2.71162V6.77944H3.48455H28.5164H29.4717V2.71162C29.4717 1.21644 28.2553 0 26.7601 0ZM11.4017 4.40862H6.7443C6.21673 4.40862 5.78905 3.98094 5.78905 3.45337C5.78905 2.92581 6.21667 2.49812 6.7443 2.49812H11.4017C11.9293 2.49812 12.357 2.92581 12.357 3.45337C12.357 3.98094 11.9293 4.40862 11.4017 4.40862ZM21.0181 4.40862H19.6086C19.081 4.40862 18.6534 3.98094 18.6534 3.45337C18.6534 2.92581 19.081 2.49812 19.6086 2.49812H21.0181C21.5457 2.49812 21.9734 2.92581 21.9734 3.45337C21.9734 3.98094 21.5457 4.40862 21.0181 4.40862ZM25.2567 4.40862H23.8472C23.3196 4.40862 22.8919 3.98094 22.8919 3.45337C22.8919 2.92581 23.3196 2.49812 23.8472 2.49812H25.2567C25.7842 2.49812 26.2119 2.92581 26.2119 3.45337C26.2119 3.98094 25.7842 4.40862 25.2567 4.40862Z" fill="#025473"/>
</svg>
