<svg width="24" height="24" viewBox="0 0 24 24" fill="none" xmlns="http://www.w3.org/2000/svg">
<path d="M5.35316 21C4.7258 21 4.13957 20.7911 3.7179 20.4031C3.1831 19.9156 2.92598 19.1795 3.01855 18.3836L3.39908 15.1604C3.47107 14.5536 3.8516 13.7478 4.29384 13.3101L12.7375 4.6651C14.8459 2.50635 17.0468 2.44666 19.2786 4.48604C21.5103 6.52541 21.5721 8.65432 19.4637 10.8131L11.02 19.458C10.588 19.9057 9.78584 20.3235 9.15848 20.423L5.84682 20.9702C5.67199 20.9801 5.51772 21 5.35316 21ZM16.0389 4.47609C15.247 4.47609 14.5579 4.9536 13.8586 5.66987L5.41487 14.3248C5.20918 14.5337 4.97263 15.0311 4.93149 15.3196L4.55096 18.5428C4.50982 18.8711 4.5921 19.1397 4.77722 19.3088C4.96235 19.4779 5.24003 19.5376 5.57942 19.4879L8.89108 18.9407C9.18934 18.891 9.683 18.6323 9.88869 18.4234L18.3324 9.77846C19.6077 8.4653 20.0705 7.25163 18.209 5.56044C17.3862 4.79443 16.6766 4.47609 16.0389 4.47609Z" fill="black"/>
<path d="M17.4892 12.474C17.4687 12.474 17.4378 12.474 17.4172 12.474C14.2084 12.1656 11.627 9.80788 11.1333 6.72394C11.0716 6.31607 11.3596 5.93804 11.7813 5.8684C12.2029 5.80871 12.5937 6.08726 12.6657 6.49514C13.0566 8.90259 15.0723 10.753 17.5818 10.9917C18.0035 11.0315 18.312 11.3996 18.2709 11.8075C18.2194 12.1855 17.8801 12.474 17.4892 12.474Z" fill="black"/>
</svg>
