<svg width="25" height="25" viewBox="0 0 25 25" fill="none" xmlns="http://www.w3.org/2000/svg">
<path d="M19.4891 15.4897L19.4891 15.4897L19.4911 15.493C19.7751 15.959 19.8238 16.5038 19.6367 17.0005C19.4451 17.509 19.0541 17.8879 18.5525 18.0527L18.5525 18.0527L18.5483 18.0541C16.6088 18.7039 14.5663 19.0248 12.5211 19.0248C10.4759 19.0248 8.43464 18.7039 6.49728 18.0448L6.49573 18.0443C5.91351 17.8476 5.51755 17.4584 5.35775 17.0123L5.35778 17.0123L5.35557 17.0063C5.18407 16.5398 5.23239 16.0105 5.54319 15.4889C5.54354 15.4883 5.54389 15.4877 5.54424 15.4871L6.59407 13.7513L6.59416 13.7513L6.60029 13.7408C6.75672 13.4726 6.88232 13.1256 6.96827 12.8094C7.05407 12.4939 7.12144 12.1316 7.12144 11.823V9.18761C7.12144 7.07628 8.34992 5.24076 10.1335 4.35353L10.3457 4.24797L10.4614 4.0411C10.8694 3.31139 11.6362 2.85047 12.4898 2.85047C13.3605 2.85047 14.1047 3.29654 14.5096 4.01294L14.6286 4.22352L14.8469 4.32772C16.6645 5.19544 17.9207 7.04777 17.9207 9.18761V11.823C17.9207 12.1316 17.9881 12.4938 18.0737 12.8099C18.1597 13.1278 18.2844 13.4738 18.4374 13.7433L18.4423 13.752L18.4474 13.7605L19.4891 15.4897Z" stroke="black" stroke-width="1.5"/>
<path d="M12.4997 22.15C12.0496 22.15 11.6053 22.0171 11.2336 21.7773C11.6585 21.8042 12.0887 21.8195 12.5205 21.8195C12.9397 21.8195 13.3574 21.8046 13.7699 21.7783C13.4021 22.0138 12.9659 22.15 12.4997 22.15Z" stroke="black" stroke-width="1.5"/>
</svg>
