<svg width="20" height="20" viewBox="0 0 20 20" fill="none" xmlns="http://www.w3.org/2000/svg">
<path d="M11.667 4.16667C11.667 3.25 10.917 2.5 10.0003 2.5C9.08366 2.5 8.33366 3.25 8.33366 4.16667C8.33366 5.08333 9.08366 5.83333 10.0003 5.83333C10.917 5.83333 11.667 5.08333 11.667 4.16667Z" fill="black"/>
<path d="M11.667 15.8337C11.667 14.917 10.917 14.167 10.0003 14.167C9.08366 14.167 8.33366 14.917 8.33366 15.8337C8.33366 16.7503 9.08366 17.5003 10.0003 17.5003C10.917 17.5003 11.667 16.7503 11.667 15.8337Z" fill="black"/>
<path d="M11.667 9.99967C11.667 9.08301 10.917 8.33301 10.0003 8.33301C9.08366 8.33301 8.33366 9.08301 8.33366 9.99967C8.33366 10.9163 9.08366 11.6663 10.0003 11.6663C10.917 11.6663 11.667 10.9163 11.667 9.99967Z" fill="black"/>
</svg>
