<svg width="176" height="176" viewBox="0 0 176 176" fill="none" xmlns="http://www.w3.org/2000/svg">
<path d="M89.2248 135.755C114.115 135.755 134.293 115.174 134.293 89.7865C134.293 64.399 114.115 43.8185 89.2248 43.8185C64.3346 43.8185 44.157 64.399 44.157 89.7865C44.157 115.174 64.3346 135.755 89.2248 135.755Z" fill="#16BE01"/>
<path d="M71.7556 87.3877L84.5181 100.716L106.693 77.8058" stroke="white" stroke-width="5"/>
<path d="M171.087 99.9905C173.604 99.9905 175.645 97.9088 175.645 95.3408C175.645 92.7729 173.604 90.6912 171.087 90.6912C168.569 90.6912 166.528 92.7729 166.528 95.3408C166.528 97.9088 168.569 99.9905 171.087 99.9905Z" fill="#7849E5"/>
<path opacity="0.413" d="M73.9008 11.1495C76.9194 11.1495 79.3664 8.65359 79.3664 5.57474C79.3664 2.4959 76.9194 0 73.9008 0C70.8823 0 68.4352 2.4959 68.4352 5.57474C68.4352 8.65359 70.8823 11.1495 73.9008 11.1495Z" fill="#1088FF"/>
<path d="M89.0544 20.0463C90.41 20.0463 91.5088 18.9255 91.5088 17.5429C91.5088 16.1603 90.41 15.0395 89.0544 15.0395C87.6989 15.0395 86.6 16.1603 86.6 17.5429C86.6 18.9255 87.6989 20.0463 89.0544 20.0463Z" fill="#16BE00"/>
<path d="M31.9077 62.1414C34.8126 62.1414 37.1674 59.7394 37.1674 56.7765C37.1674 53.8136 34.8126 51.4117 31.9077 51.4117C29.0028 51.4117 26.6479 53.8136 26.6479 56.7765C26.6479 59.7394 29.0028 62.1414 31.9077 62.1414Z" fill="#F40354"/>
<path opacity="0.413" d="M49.0464 146.393C50.7059 146.393 52.0512 145.021 52.0512 143.328C52.0512 141.635 50.7059 140.263 49.0464 140.263C47.3869 140.263 46.0416 141.635 46.0416 143.328C46.0416 145.021 47.3869 146.393 49.0464 146.393Z" fill="#7849E5"/>
<path d="M82.0575 173.993C84.6619 173.993 86.7733 171.839 86.7733 169.183C86.7733 166.526 84.6619 164.373 82.0575 164.373C79.453 164.373 77.3417 166.526 77.3417 169.183C77.3417 171.839 79.453 173.993 82.0575 173.993Z" stroke="#1088FF" stroke-width="4"/>
<path d="M92.4631 162.747C94.0124 162.747 95.2685 161.465 95.2685 159.885C95.2685 158.305 94.0124 157.024 92.4631 157.024C90.9137 157.024 89.6577 158.305 89.6577 159.885C89.6577 161.465 90.9137 162.747 92.4631 162.747Z" fill="#B6D7F7"/>
<path d="M163.326 83.443C164.435 83.443 165.334 82.5261 165.334 81.3952C165.334 80.2642 164.435 79.3473 163.326 79.3473C162.217 79.3473 161.318 80.2642 161.318 81.3952C161.318 82.5261 162.217 83.443 163.326 83.443Z" fill="#1088FF"/>
<path d="M130.782 135.754C130.782 135.754 142.567 138.019 143.419 152.515" stroke="#7849E5" stroke-width="4" stroke-linecap="round"/>
<path d="M2.00807 118.902C2.00807 118.902 14.1923 122.611 17.8496 111.219C21.5069 99.8276 12.4423 99.6955 11.0791 103.501C9.71587 107.307 12.4614 112.963 21.4135 111.219C26.856 110.044 29.5138 105.016 29.5138 105.016" stroke="#1088FF" stroke-width="4" stroke-linecap="round"/>
<path d="M143.419 43.7926C143.419 43.7926 154.874 44.8412 157.754 33.7649C160.633 22.6886 162.391 21.4802 166.129 20.0474" stroke="#7849E5" stroke-width="4" stroke-linecap="round"/>
</svg>
