<svg width="73" height="58" viewBox="0 0 73 58" fill="none" xmlns="http://www.w3.org/2000/svg">
<path d="M68.592 26.3741C68.592 26.3741 69.0935 19.6704 72.7772 13.7185C72.7772 13.7185 58.8083 3.26671 47.1574 0C47.1589 0.0701308 47.1627 0.1399 47.1627 0.210636C47.1627 5.29724 43.0391 9.42078 37.9524 9.42078V58C45.9799 58 53.5045 55.8437 59.977 52.078C59.2227 50.2962 58.5779 48.5719 58.0286 46.9103C52.9976 31.7122 55.8874 21.795 55.8874 21.795C55.8874 21.795 59.4758 21.1577 68.592 26.3741ZM50.7895 20.1241C51.6299 13.6311 51.3109 13.143 45.0263 11.3075C51.5193 12.1479 52.0072 11.829 53.8428 5.54433C53.0026 12.0373 53.3215 12.5252 59.606 14.3608C53.1129 13.5205 52.625 13.8394 50.7895 20.1241Z" fill="black"/>
<path d="M4.18519 26.3741C4.18519 26.3741 3.68374 19.6704 0 13.7185C0 13.7185 13.969 3.26671 25.6199 0C25.6183 0.0702519 25.6146 0.1399 25.6146 0.210636C25.6146 5.29736 29.7381 9.42078 34.8248 9.42078V58C26.7973 58 19.2727 55.8437 12.8003 52.078C13.5545 50.2962 14.1994 48.5719 14.7487 46.9103C19.7797 31.7122 16.8899 21.795 16.8899 21.795C16.8899 21.795 13.3013 21.1577 4.18519 26.3741Z" fill="#5B83FB"/>
</svg>
