<svg width="50" height="63" viewBox="0 0 50 63" fill="none" xmlns="http://www.w3.org/2000/svg">
<g opacity="0.2">
<path d="M21.99 12.0121C21.9537 11.9257 21.9183 11.8373 21.8822 11.7473C21.7486 11.4161 21.6114 11.0724 21.4212 10.7732C20.9867 10.0876 20.113 9.82483 19.3436 10.1479C19.2335 10.1946 19.124 10.2429 19.0137 10.2932L18.1171 10.6883L15.4977 6.50731L15.7108 6.41345C16.0955 7.05401 16.4986 7.67232 16.9124 8.25064C16.978 8.34349 17.0966 8.36006 17.1896 8.29439C17.2759 8.23346 17.3241 8.10633 17.2442 7.99326C16.8447 7.43516 16.4582 6.84658 16.0949 6.24249L16.1377 6.2236C16.2114 6.37469 16.2928 6.51531 16.3802 6.64972C16.4192 6.71018 16.4792 6.74201 16.5467 6.73876C16.6207 6.73437 16.6912 6.68569 16.7272 6.61511C16.7632 6.54452 16.7584 6.46546 16.7153 6.39973C16.6487 6.29671 16.5848 6.18369 16.5216 6.05624L18.5339 5.16973C18.7011 5.09607 18.7806 4.89162 18.707 4.72461L17.9966 3.1122C17.979 3.0723 17.962 3.02156 17.9415 2.96705C17.8791 2.79336 17.8029 2.57633 17.6666 2.47934C17.5736 2.41266 17.4499 2.39655 17.3407 2.38115C17.299 2.3748 17.258 2.36994 17.2229 2.36246C17.0739 2.32923 16.9126 2.28383 16.7331 2.22527C16.4461 2.13113 16.1488 2.00974 15.8453 1.86636C15.199 1.55816 14.5516 1.15156 13.8704 0.623979C13.2355 0.141308 12.4578 -0.0719652 11.681 0.0214528C11.2448 0.0741764 10.8623 0.24448 10.4901 0.410222C10.0202 0.618988 9.55248 0.828582 9.08262 1.03735L8.33297 1.37291C6.7256 2.09163 5.06202 2.83513 3.42068 3.55294C2.27122 4.05582 1.21826 4.50912 0.202025 4.93742C0.124258 4.97345 0.0582168 5.03608 0.0250781 5.12127C-0.00954077 5.20711 -0.00839465 5.3019 0.0274166 5.38319L0.856933 7.26606C0.894047 7.3503 0.972407 7.4199 1.06633 7.45264C1.15109 7.4806 1.23678 7.47461 1.30963 7.43546C1.79612 7.16819 2.46004 7.07511 3.12587 7.17885C3.14096 7.18102 3.15739 7.18614 3.17314 7.18979C4.27355 9.2745 4.20648 11.6689 4.04254 13.9435C4.03196 14.1 4.13122 14.2451 4.2835 14.298C4.42726 14.3476 4.56862 14.2994 4.65295 14.174C5.80306 12.4655 6.30281 10.3235 6.03028 8.28526C6.0804 8.26671 6.12923 8.2452 6.17871 8.22516C6.33389 8.16033 6.4787 8.10005 6.63945 8.08394C6.83647 8.06597 7.03307 8.11525 7.20992 8.22793C7.62961 8.49481 7.88328 8.97426 8.07618 9.40812C8.14976 9.57512 8.35428 9.65444 8.52148 9.58078L11.1433 8.42571L13.7627 12.6066L12.9725 12.9547C12.7713 13.0434 12.5716 13.1314 12.3697 13.2186C11.9666 13.3944 11.5656 13.571 11.1645 13.7513C10.5317 14.0354 10.1329 14.654 10.1468 15.3273C10.1561 15.7574 10.3543 16.1712 10.546 16.5703C10.5965 16.6769 10.6485 16.7828 10.6934 16.8848C10.907 17.3696 11.2988 17.7335 11.7596 17.8852C11.6429 17.9772 11.5387 18.0654 11.4425 18.1519C10.2749 19.2152 9.50408 20.6136 9.1535 22.3123C8.79392 24.0466 8.64464 25.8613 8.70896 27.7036C8.75833 29.099 8.92801 30.4466 9.21554 31.7088C9.36804 32.3758 9.53926 33.1333 9.89257 33.7789C10.3055 34.5358 10.7319 35.1386 11.1959 35.6224C11.5353 35.9759 11.9372 36.3106 12.4591 36.6771L12.6397 36.8023C12.9806 37.0386 13.3326 37.2842 13.6475 37.5619C14.0783 37.9421 14.4729 38.4248 14.8197 38.9955C16.2048 41.2813 16.5051 44.0962 16.6219 46.7996C16.6737 48.0121 16.6744 49.2489 16.6758 50.443C16.6766 52.0169 16.6768 53.6456 16.7959 55.2432C16.9663 57.5189 17.3956 60.0492 19.2964 61.5766C20.5622 62.5931 22.2719 63.1052 23.9861 62.9818C24.7771 62.9245 25.6027 62.7091 26.4386 62.3408L44.3535 54.4482L44.9482 54.1862C45.97 53.7343 46.8396 53.0935 47.5362 52.2766C48.6514 50.97 49.2303 49.3084 49.1268 47.718C49.0651 46.7799 48.7231 45.8311 48.0775 44.8149C47.3983 43.7464 46.527 42.8314 45.8437 42.1548C44.8844 41.2044 43.8815 40.3315 42.8517 39.4457C42.5982 39.2274 42.3433 39.0096 42.0863 38.7911C40.3018 37.2672 38.4576 35.6919 36.9506 33.8552C36.0806 32.7948 35.4729 31.8043 35.0939 30.8277C34.653 29.6948 34.5502 28.563 34.7866 27.4635C34.8329 27.2437 34.8908 27.0223 34.9463 26.8073C35.0152 26.5387 35.0868 26.2601 35.1403 25.9806C35.2539 25.3923 35.2855 24.7942 35.2335 24.203C35.0933 22.6376 34.4518 21.0531 33.3751 19.6197C32.4057 18.3297 31.1224 17.1532 29.3352 15.9199C28.601 15.4122 27.7928 14.9053 26.8617 14.3678C26.1009 13.9282 25.3613 13.6329 24.6001 13.4652C23.7409 13.2755 22.8528 13.2486 21.9594 13.3863C22.1679 12.9573 22.1799 12.4632 21.99 12.0121ZM12.5044 5.13478C12.6109 5.08785 12.6558 4.96923 12.6077 4.85986C12.5595 4.75049 12.4431 4.70293 12.3351 4.75052L5.69767 7.67471C5.58019 7.70882 5.48137 7.71705 5.38081 7.70135C5.14886 7.66412 4.94141 7.5261 4.74988 7.38812C4.6492 7.316 4.54951 7.23815 4.44771 7.15946C4.10614 6.89346 3.75134 6.6174 3.31869 6.52564C2.66972 6.388 1.93452 6.44366 1.3354 6.67584L0.781956 5.41961C2.32161 4.76777 3.95684 4.05618 5.91913 3.18461C6.81741 2.78534 7.71505 2.38458 8.61268 1.98382L9.97952 1.37282C10.1112 1.31481 10.2431 1.25318 10.375 1.19156C10.6712 1.05397 10.9772 0.91035 11.2852 0.799368C12.0095 0.538513 12.8257 0.674822 13.4704 1.16375C14.5567 2.00524 15.5764 2.56723 16.5809 2.87825L13.6172 4.18389C13.5107 4.23083 13.4658 4.34945 13.514 4.45881C13.5622 4.56818 13.6785 4.61574 13.7865 4.56815L17.2325 3.05L17.9526 4.68459L8.54985 8.82707C8.27177 8.30014 7.82117 7.69039 7.16983 7.48321L12.5037 5.1333L12.5044 5.13478ZM4.19238 7.81903C4.22725 7.84602 4.26144 7.87155 4.295 7.89559C4.54791 8.08065 4.92878 8.32757 5.3606 8.37734C5.54427 9.76472 5.3443 11.2117 4.79597 12.5015C4.83951 11.1005 4.77846 9.39796 4.19238 7.81903ZM14.8748 6.78174L17.4956 10.962L14.387 12.3316L11.7662 8.15127L14.8748 6.78174ZM11.0438 15.9998C10.9896 15.8808 10.9334 15.7573 10.8866 15.635C10.7687 15.3233 10.8198 14.962 11.0235 14.6905C11.1746 14.488 11.39 14.3914 11.6297 14.2858C11.6341 14.2838 11.6371 14.2825 11.6415 14.2806L18.2641 11.3629C18.415 11.2964 18.5653 11.2285 18.7162 11.162C19.0115 11.0301 19.3165 10.8922 19.6194 10.7658C19.9431 10.6303 20.2998 10.662 20.5744 10.8481C20.7739 10.9843 20.8836 11.1689 20.9949 11.4217C21.0353 11.5133 21.0827 11.6089 21.1293 11.7066C21.3029 12.0607 21.4989 12.4614 21.4469 12.8285C21.3989 13.1567 21.1815 13.4413 20.8645 13.588L12.8718 17.1093C12.641 17.211 12.422 17.3074 12.1671 17.2821C11.8213 17.2473 11.5163 17.0323 11.3666 16.7206C11.3075 16.5984 11.2543 16.4736 11.2011 16.3488C11.175 16.2897 11.1505 16.2299 11.1244 16.1708C11.0961 16.1145 11.0692 16.0575 11.0438 15.9998ZM15.3575 38.5839C15.009 38.0174 14.6021 37.519 14.1485 37.1029C13.7904 36.7754 13.388 36.4956 12.9988 36.2258L12.961 36.2002C12.5866 35.9398 12.1553 35.6304 11.7842 35.2574C11.318 34.7886 10.9058 34.222 10.5246 33.5252C10.2024 32.9382 10.035 32.2655 9.87735 31.5708C9.20965 28.6195 9.19191 25.4472 9.82449 22.3996C10.1612 20.7777 10.9609 19.4088 12.1398 18.4394C12.796 17.8997 13.5517 17.5457 14.2101 17.2556L20.3726 14.5407C21.811 13.9158 23.4109 13.8056 24.8773 14.2308C25.6879 14.4667 26.4004 14.8728 27.1204 15.3039C28.0133 15.8388 28.7901 16.3507 29.4951 16.8642C31.1671 18.0848 32.3916 19.3083 33.2392 20.6026C34.1493 21.9947 34.6282 23.5308 34.5835 24.9252C34.5646 25.516 34.4225 26.0957 34.2842 26.656C34.1837 27.0656 34.0789 27.4894 34.0217 27.917C33.8759 29.0136 34.083 30.2336 34.6197 31.4478C35.6586 33.7979 37.6126 35.6989 39.3617 37.2949C40.1485 38.0141 40.9724 38.7171 41.7705 39.3979C42.9709 40.4221 44.2121 41.483 45.3493 42.6126C46.9304 44.1802 48.3999 45.9117 48.4639 47.9536C48.5108 49.4718 47.8366 51.0695 46.6614 52.2279C46.0924 52.7891 45.4198 53.2355 44.609 53.5927L26.1749 61.714C25.3818 62.0634 24.6253 62.2591 23.8643 62.3084C22.229 62.4182 20.5746 61.8553 19.4379 60.8031C18.7574 60.1728 18.2526 59.2834 17.9394 58.1596C17.6021 56.9528 17.4952 55.7117 17.4341 54.6585C17.3595 53.3784 17.3579 52.0714 17.3548 50.8092L17.3539 50.1496C17.3496 47.5131 17.3462 44.7863 16.7572 42.178C16.4383 40.7725 15.9809 39.594 15.3575 38.5839Z" fill="black"/>
<path d="M26.6924 51.3653L35.9546 47.2847C36.0285 47.2521 36.104 47.2189 36.1786 47.1878C36.2526 47.1552 36.3272 47.1241 36.4027 47.0908C36.7445 46.9403 37.0885 46.7746 37.3956 46.5493C38.5084 45.7308 39.3304 44.0433 38.6607 42.5312C38.1772 41.4418 37.0508 40.7539 36.2272 40.252C36.0635 40.153 35.8975 40.0531 35.7323 39.9547C34.8322 39.4195 33.9005 38.8646 33.2017 38.0765C32.76 37.5793 32.4599 37.0304 32.3105 36.4467C32.1777 35.9246 32.1952 35.4069 32.371 34.7153C32.5471 34.0201 32.5732 33.4297 32.4509 32.8553C32.2763 32.034 31.8852 31.2586 31.2874 30.5513C30.7409 29.9044 30.0477 29.3133 29.1008 28.684C28.3558 28.188 27.5848 27.6771 26.6865 27.5028C25.9122 27.3533 25.1049 27.446 24.35 27.7698L22.2653 28.6882C22.0892 28.7658 21.9082 28.8402 21.7243 28.916C21.1038 29.1717 20.461 29.4372 19.9375 29.8408C19.2912 30.3391 18.8066 31.0397 18.5731 31.8131C18.3385 32.5959 18.2188 33.5152 18.2092 34.6242C18.1963 36.0787 18.3707 37.2566 18.7414 38.2263C18.9339 38.7274 19.2905 39.2321 19.7462 39.649C19.9319 39.8178 20.1383 39.9616 20.3377 40.1014C20.5679 40.2629 20.8073 40.4293 21.0058 40.6312C22.1441 41.7833 22.2323 43.4633 22.1831 44.3621C22.1501 44.9731 22.0461 45.5872 21.9474 46.1813C21.8472 46.7761 21.7439 47.3916 21.7108 48.0062C21.6364 49.3573 22.0718 50.4096 22.9718 51.049C24.0143 51.7951 25.4415 51.9146 26.6924 51.3653ZM21.3706 40.3805C21.1441 40.1432 20.8782 39.9568 20.623 39.7745C20.4713 39.6666 20.3125 39.5548 20.1678 39.435C19.7204 39.0692 19.3516 38.5769 19.1565 38.0858C18.9955 37.6802 18.9048 37.2419 18.8297 36.8268C18.6994 36.1059 18.6381 35.3652 18.6464 34.6221C18.6588 33.4872 18.7737 32.6213 19.0047 31.8983C19.2468 31.1405 19.7468 30.479 20.415 30.0346C20.6365 29.8876 20.8816 29.7743 21.1228 29.6681C21.1568 29.6531 21.1909 29.6381 21.2249 29.6231L24.5258 28.1688C25.2845 27.8416 26.1271 27.781 26.8959 27.9982C27.3235 28.1187 27.7094 28.3369 28.0371 28.5314C28.516 28.8163 28.9319 29.0866 29.3073 29.3571C31.1052 30.651 32.0436 32.0553 32.0972 33.5282C32.1104 33.9071 32.0257 34.2603 31.9357 34.6335C31.8984 34.7894 31.8585 34.9517 31.8281 35.1151C31.7178 35.6949 31.7787 36.3104 32.0068 36.9405C32.365 37.9299 33.1179 38.7805 34.3735 39.6215C34.7316 39.8608 35.1093 40.0845 35.475 40.301C36.108 40.6751 36.7619 41.0647 37.3312 41.5427C37.7774 41.9179 38.0815 42.2993 38.262 42.7051C38.527 43.3066 38.5296 44.0184 38.2661 44.7116C37.9403 45.5681 37.2704 46.225 36.2761 46.6631L26.9591 50.7677C26.4324 50.9998 25.9344 51.2209 25.3596 51.2677C23.6446 51.4091 22.4612 50.291 22.2189 49.1677C22.0287 48.2827 22.1939 47.3504 22.3533 46.449C22.3873 46.2575 22.4205 46.0682 22.4508 45.8801C22.6421 44.6823 22.7658 43.403 22.3843 42.1681C22.2275 41.676 21.9275 40.9628 21.3706 40.3805Z" fill="black"/>
<path d="M8.96194 31.3712C8.95613 31.2978 8.91631 31.2395 8.85404 31.2105C8.78539 31.1789 8.69885 31.1871 8.63434 31.2331C8.57214 31.2764 8.53906 31.3457 8.54682 31.4235C8.74379 33.7032 9.97145 35.8643 11.8308 37.2052C11.8923 37.2487 11.965 37.2572 12.0301 37.2286L12.0316 37.2279C12.1026 37.1966 12.1546 37.1261 12.1612 37.049C12.1684 36.977 12.1376 36.9112 12.0769 36.8656C10.3119 35.5943 9.14914 33.5405 8.96194 31.3712Z" fill="black"/>
<path d="M14.1939 40.0764C14.25 40.0993 14.313 40.098 14.3692 40.0733C14.3855 40.0661 14.3997 40.0581 14.414 40.0465C14.4719 40.0015 14.4999 39.9327 14.4898 39.8578C14.3392 38.7258 13.4708 37.9578 12.5552 37.2952C12.4595 37.2262 12.3368 37.2485 12.2662 37.3449C12.1956 37.4413 12.2148 37.5652 12.3091 37.6348C13.0919 38.2006 13.9381 38.8902 14.0744 39.9173C14.0853 39.9901 14.1287 40.0486 14.1939 40.0764Z" fill="black"/>
<path d="M12.6386 39.0796C12.6857 39.1383 12.7539 39.1647 12.8268 39.1537C12.845 39.151 12.8619 39.1453 12.8797 39.1375C12.9329 39.114 12.9786 39.0692 12.998 39.013C13.023 38.9455 13.0106 38.8733 12.9636 38.8146C12.494 38.238 11.9828 37.6832 11.4465 37.1676C11.3477 37.0717 11.2074 37.0982 11.1297 37.1784C11.0534 37.2579 11.0551 37.3701 11.1346 37.4462C11.666 37.9586 12.1724 38.5067 12.6386 39.0796Z" fill="black"/>
<path d="M45.3866 40.8478C45.4576 40.9207 45.5527 40.9282 45.6296 40.8943C45.6548 40.8832 45.678 40.8677 45.6963 40.849C45.7784 40.7706 45.7804 40.6549 45.7019 40.573C44.5676 39.398 43.3344 38.3071 42.0354 37.3317C41.9279 37.252 41.81 37.2933 41.7488 37.375C41.6876 37.4567 41.6798 37.5872 41.7865 37.669C43.0694 38.6321 44.2806 39.7009 45.3866 40.8478Z" fill="black"/>
<path d="M45.9718 41.3488C46.2024 41.6796 46.4644 41.9894 46.753 42.2717C46.8248 42.3424 46.9193 42.3484 46.9948 42.3152C47.0229 42.3028 47.0469 42.2852 47.0682 42.2652C47.1466 42.1865 47.1457 42.0722 47.0656 41.9946C46.7852 41.7193 46.5287 41.4176 46.3035 41.095C46.2615 41.0358 46.1986 41.0053 46.1318 41.01C46.0569 41.0166 45.9872 41.0667 45.9533 41.1381C45.9187 41.208 45.9258 41.2843 45.9718 41.3488Z" fill="black"/>
<path d="M46.7672 41.0741C46.8372 41.1527 46.9323 41.1602 47.0093 41.1263C47.0315 41.1165 47.0523 41.1038 47.0698 41.0873C47.1576 41.0098 47.1649 40.8901 47.0881 40.8039L45.9157 39.4903C45.8252 39.3891 45.6918 39.4072 45.6146 39.4765C45.5268 39.554 45.5195 39.6737 45.5963 39.7599L46.7672 41.0741Z" fill="black"/>
<path d="M2.67292 3.68674C3.67655 3.20576 4.7148 2.77129 5.76188 2.39293C5.76631 2.39098 5.77225 2.38837 5.77669 2.38641C5.83735 2.35968 5.87889 2.30962 5.88996 2.2465C5.90303 2.17192 5.87294 2.09164 5.81174 2.04096C5.75267 1.99109 5.67658 1.97873 5.6036 2.00559C4.55144 2.38442 3.50725 2.8215 2.49983 3.30592C2.3775 3.36511 2.35881 3.49511 2.40409 3.58987C2.45393 3.69498 2.56407 3.73646 2.66764 3.69083C2.66847 3.6887 2.67144 3.6874 2.67292 3.68674Z" fill="black"/>
<path d="M6.75031 1.78688C6.76807 1.77905 6.7858 1.77124 6.80208 1.76407C6.92423 1.70849 6.94506 1.57931 6.90191 1.48537C6.8529 1.37814 6.7421 1.33518 6.62983 1.38111C6.41807 1.47794 6.20508 1.55589 5.99823 1.61172C5.864 1.64792 5.81476 1.78079 5.84489 1.88929C5.87372 1.99483 5.9715 2.05234 6.07862 2.0228C6.31997 1.95706 6.54021 1.87944 6.75031 1.78688Z" fill="black"/>
<path d="M6.11197 11.2196C5.99922 11.2164 5.91639 11.297 5.9145 11.409C5.89868 12.1872 5.62976 12.9162 5.13631 13.5166C5.06393 13.605 5.07695 13.7228 5.16597 13.7965C5.22652 13.8457 5.31314 13.8658 5.39007 13.8319C5.41819 13.8195 5.44598 13.7984 5.46906 13.7706C6.00867 13.1146 6.31419 12.2882 6.33125 11.4407C6.3329 11.3041 6.22045 11.2213 6.11197 11.2196Z" fill="black"/>
<path d="M6.48989 11.9709C6.41982 12.0123 6.38164 12.0821 6.38347 12.1625C6.38982 12.4897 6.30888 12.8112 6.14543 13.1179C6.09288 13.2152 6.12597 13.3224 6.22328 13.3748C6.28323 13.4067 6.35972 13.4118 6.42482 13.3831C6.46625 13.3649 6.50179 13.3333 6.52724 13.2868C6.71679 12.9351 6.80705 12.5423 6.80022 12.1218C6.79868 12.0501 6.76605 11.9921 6.70757 11.9597C6.64483 11.9255 6.55848 11.9301 6.48989 11.9709Z" fill="black"/>
<path d="M7.06098 12.9761C7.11229 12.9923 7.16172 12.9881 7.20315 12.9699C7.25197 12.9484 7.29102 12.9047 7.30978 12.847C7.3802 12.6219 7.41156 12.3963 7.40687 12.1531C7.40574 12.1024 7.38277 12.0543 7.34039 12.0182C7.29245 11.9776 7.22689 11.957 7.1686 11.9651C7.06005 11.9794 6.98749 12.0713 6.9895 12.1922C6.992 12.3623 6.96692 12.5339 6.91508 12.705C6.87473 12.834 6.95835 12.9436 7.06098 12.9761Z" fill="black"/>
</g>
</svg>
