<svg width="48" height="51" viewBox="0 0 48 51" fill="none" xmlns="http://www.w3.org/2000/svg">
<g opacity="0.2">
<path d="M14.5865 37.466C15.5964 39.0355 16.6052 40.6057 17.6121 42.177L18.3816 43.379C18.8945 44.1808 19.4067 44.9816 19.9216 45.7822C20.5682 46.7883 21.1358 47.5696 21.7087 48.2427C23.2752 50.0833 24.9458 51.0121 26.6745 50.9998C27.7137 50.9929 28.822 50.6255 30.062 49.8762C30.1534 49.8216 30.2435 49.7651 30.3336 49.7085C31.0813 49.2393 31.8059 48.7156 32.5082 48.2073C32.7777 48.012 33.0468 47.8183 33.3171 47.6266L41.5116 41.8192C42.2857 41.2713 43.0593 40.7224 43.8339 40.1729C44.8457 39.4537 45.7416 38.7895 46.4559 37.9262C47.1933 37.036 47.6084 36.0281 47.6911 34.9325C47.7614 33.9977 47.5914 32.9504 47.1704 31.7297C46.7655 30.5567 46.2073 29.3945 45.7153 28.3686C45.1093 27.1082 44.4548 25.8521 43.769 24.6362C42.3607 22.1393 40.8252 19.7938 39.2072 17.6643C38.1993 16.3376 36.6278 14.4077 34.6319 12.9649C32.7138 11.5779 30.6557 10.8455 28.5158 10.7877C27.3194 10.7553 26.1165 10.8995 24.9524 11.0372C23.8604 11.1668 22.7317 11.3016 21.6136 11.2905C20.6368 11.2803 19.6359 11.1943 18.6687 11.1091L18.2763 11.0755C17.1505 10.9796 15.8743 10.8706 14.8208 10.4039C14.0889 10.0801 13.48 9.55634 13.0119 8.84777C12.8545 8.61015 12.6974 8.37091 12.541 8.13266L9.796 3.96112C9.95796 3.8057 10.0593 3.6373 10.1123 3.43583C10.2203 3.03164 10.0658 2.67773 9.88352 2.35645C9.67836 1.99436 9.43887 1.61935 9.10694 1.14103C9.06672 1.08355 9.02849 1.02481 8.98802 0.964729C8.79324 0.67196 8.59224 0.369301 8.28574 0.186634C7.97861 0.00297741 7.59869 -0.0481302 7.24387 0.0463249C6.9106 0.135528 6.60178 0.347264 6.30385 0.552164C6.20433 0.620135 6.10581 0.687485 6.00975 0.74777C5.58591 1.01377 5.15997 1.28522 4.74282 1.55529C3.88909 2.10625 3.03352 2.67628 2.19704 3.24813C1.78672 3.52908 1.37134 3.81734 0.962145 4.10448L0.861264 4.17469C0.569899 4.37685 0.26863 4.58523 0.114119 4.93727C-0.0507677 5.31237 -0.0361965 5.72927 0.154122 6.1117C0.395996 6.59827 0.681965 7.07372 0.929795 7.47521C0.963318 7.52863 0.996099 7.58526 1.03049 7.64227C1.2293 7.97664 1.45541 8.35453 1.80256 8.54477C2.17786 8.74907 2.6465 8.72382 3.02825 8.47873L3.0686 8.45064L5.61021 12.2893C6.05415 12.9593 6.27397 13.6197 6.28246 14.3106C6.28839 14.7577 6.18018 15.1704 6.06741 15.6065C6.03832 15.7185 6.00924 15.8305 5.98238 15.9439C5.85105 16.4868 5.7428 17.0621 5.65998 17.656C5.4834 18.9098 5.43197 20.0024 5.50232 20.9964C5.57205 21.9895 5.84235 22.9656 6.37918 24.1619C6.96758 25.4734 7.72288 26.7187 8.38427 27.7637C10.4353 31.0099 12.5461 34.2918 14.5865 37.466ZM6.20206 11.8379L3.67781 8.02694C5.1475 6.99704 6.6201 6.01356 8.05563 5.10299C8.4099 4.87789 8.7809 4.64644 9.18915 4.39299L12.3757 9.23736C12.8417 9.94457 13.4218 10.4973 14.1022 10.8797C15.0813 11.4303 16.2623 11.6032 17.3881 11.7322C18.1164 11.817 18.8589 11.8653 19.5772 11.9123C19.9572 11.9371 20.3372 11.962 20.7177 11.992C21.9566 12.09 23.1564 11.9892 24.167 11.8775C24.4159 11.8496 24.6648 11.8216 24.914 11.792C26.8713 11.5633 28.8956 11.3269 30.8439 11.88C32.6529 12.3938 34.3886 13.4967 36.1495 15.2512C37.8783 16.972 39.2883 18.9549 40.5548 20.8432C42.0918 23.1339 43.4937 25.548 44.7199 28.0186C45.2677 29.1225 45.8401 30.3006 46.2991 31.5071C46.7569 32.7116 46.9622 33.6458 46.9638 34.5369C46.9657 35.5891 46.5988 36.5901 45.9039 37.4316C45.1724 38.3181 44.2139 38.9968 43.2805 39.6584L32.9176 47.0032C32.6472 47.1949 32.3778 47.3902 32.1077 47.5845C31.3223 48.1519 30.51 48.7402 29.6708 49.2462C28.4774 49.9663 27.4637 50.2867 26.4817 50.2549C25.6329 50.2265 24.7527 49.9061 23.9385 49.3279C22.3488 48.1981 21.269 46.5084 20.224 44.8741L10.9252 30.3564C10.718 30.0329 10.5092 29.7089 10.301 29.386C9.76151 28.5484 9.20246 27.6818 8.67018 26.8205C8.04353 25.8088 7.33423 24.5994 6.8172 23.2983C6.58822 22.7223 6.41745 22.2324 6.3304 21.7176C6.26146 21.3087 6.2259 20.8539 6.21944 20.2872C6.20671 19.2156 6.31357 18.0772 6.53784 16.9038C6.59209 16.6229 6.65998 16.3418 6.72601 16.0687C6.91292 15.302 7.10636 14.5105 6.97242 13.679C6.87223 13.0663 6.62763 12.4808 6.20206 11.8379ZM1.48401 6.96608C1.44352 6.89497 1.40304 6.82387 1.3628 6.75536C1.31946 6.68191 1.2739 6.60709 1.22994 6.53265C1.08032 6.28324 0.924106 6.02555 0.806301 5.76306C0.701919 5.53076 0.728969 5.28353 0.880363 5.10027C1.03077 4.91764 1.26312 4.77319 1.48692 4.63274C1.57605 4.5768 1.66418 4.52149 1.74389 4.46595C2.10841 4.21099 2.48172 3.95464 2.8523 3.70276C3.56439 3.21864 4.29036 2.73683 5.00842 2.27102C5.70235 1.82173 6.40854 1.37439 7.10782 0.94243C7.35168 0.792143 7.57639 0.677313 7.85122 0.798512C8.0844 0.90173 8.25499 1.17797 8.40672 1.42192C8.45203 1.49413 8.4945 1.564 8.5372 1.62544C8.77679 1.9742 8.96549 2.26388 9.1299 2.54125C9.14877 2.57352 9.16926 2.60617 9.18975 2.63881C9.33713 2.87584 9.49108 3.12116 9.34807 3.36395C9.28849 3.46477 9.18921 3.52432 9.08337 3.5866C9.06357 3.59903 9.04214 3.6111 9.02233 3.62353C8.84581 3.73156 8.66892 3.84119 8.49364 3.9512C8.11176 4.18948 7.72815 4.43161 7.35469 4.67012C5.77533 5.67924 4.18479 6.7519 2.63195 7.85605C2.62997 7.85729 2.62699 7.85916 2.62501 7.8604C2.41309 7.9934 2.18336 7.96386 2.02466 7.78356C1.81632 7.54618 1.64756 7.25087 1.48401 6.96608Z" fill="black"/>
<path d="M31.9349 23.4542C33.8763 26.1363 35.6356 28.9396 37.1642 31.7843C38.045 33.4252 38.7801 34.9507 39.4106 36.448C39.4194 36.4687 39.4313 36.4833 39.4398 36.4945C39.4416 36.4975 39.4445 36.4999 39.4464 36.5028C39.4824 36.5933 39.5457 36.6611 39.6235 36.695C39.7001 36.7268 39.7877 36.7256 39.876 36.6882C40.1001 36.5944 40.3157 36.4826 40.5197 36.3545C41.8526 35.518 42.7486 33.9699 42.9112 32.1526C43.1052 29.9765 42.2089 27.8863 41.3052 26.1274C40.2327 24.0402 38.9052 22.0482 37.3588 20.2087C36.0716 18.6768 34.4816 16.9791 32.4449 15.9948C30.2764 14.9456 27.9324 14.9497 26.1721 16.0048C26.0807 16.0594 26.0147 16.1587 26.0024 16.2712C25.9887 16.3901 26.0314 16.5109 26.116 16.5929C28.0308 18.4452 29.9335 20.6897 31.9349 23.4542ZM29.9694 19.702C28.9516 18.474 27.9752 17.3977 26.9878 16.4139C28.3254 15.7936 30.0493 15.8023 31.6214 16.4399C33.5701 17.2313 35.1199 18.7901 36.252 20.0595C37.7098 21.694 39.0031 23.5062 40.0972 25.4475C41.0183 27.0823 42.0149 28.998 42.1734 31.0563C42.3005 32.7082 41.7248 34.7337 40.175 35.7064C40.1027 35.7517 40.0276 35.7947 39.9512 35.8358C38.8165 33.203 37.421 30.5505 35.6846 27.7287C33.8838 24.8066 31.9611 22.1058 29.9694 19.702Z" fill="black"/>
<path d="M14.0063 27.9126C14.1073 28.0602 14.2082 28.2078 14.3039 28.3559L23.1352 41.9592L23.4494 42.4445C23.6592 42.7678 23.869 43.0911 24.0798 43.4138C24.3466 43.8213 24.6768 44.1077 25.0632 44.2637C25.4534 44.4214 25.8785 44.4565 26.2897 44.3639C26.6866 44.2748 27.0526 44.0575 27.4062 43.8467C27.4965 43.7927 27.5859 43.7394 27.6755 43.6886C28.2621 43.3564 28.8217 43.0231 29.3575 42.6868C30.8538 41.7478 32.1597 40.7889 33.3184 39.7805C33.7369 39.4158 34.138 39.0386 34.5089 38.6597C34.5352 38.6335 34.5517 38.6025 34.5587 38.5719L34.563 38.5568C34.5674 38.5375 34.568 38.5164 34.5655 38.4904C34.5621 38.4718 34.5572 38.4529 34.5492 38.4358C34.5477 38.4313 34.5462 38.4267 34.5444 38.4237C34.5422 38.4182 34.5402 38.4084 34.5324 38.3981L22.6205 20.1611C22.332 19.719 22.039 19.4479 21.6701 19.2823C21.2902 19.1126 20.875 19.0602 20.4692 19.1328C19.9921 19.2172 19.605 19.4932 19.2317 19.7606L19.1575 19.814C18.3035 20.4217 17.4136 21.1415 16.3589 22.0805L16.0557 22.3495C15.2668 23.05 14.4513 23.7741 13.7129 24.5395C13.1023 25.1722 12.9684 26.1553 13.3863 26.9312C13.5681 27.2693 13.7905 27.5972 14.0063 27.9126ZM22.8325 21.2731L34.075 38.4853C32.7442 39.8223 31.1417 41.0583 29.0367 42.378C28.5722 42.6695 28.0917 42.9573 27.6099 43.2321C27.5094 43.2897 27.4071 43.3511 27.3035 43.4147C26.9607 43.623 26.6071 43.838 26.2398 43.9347C25.8292 44.0436 25.3825 43.9806 25.0147 43.7619C24.661 43.5524 24.4397 43.1976 24.2253 42.8538C24.1824 42.7855 24.1402 42.7182 24.097 42.6516L16.6073 31.1156L14.4662 27.8184C14.2682 27.5138 14.0698 27.2109 13.8738 26.9051C13.6066 26.4882 13.5127 26.0659 13.5948 25.6491C13.6875 25.1786 13.9788 24.8731 14.3499 24.523C14.7603 24.1345 15.1853 23.734 15.6132 23.3358C16.3284 22.6719 17.2795 21.8076 18.2795 21.0103C18.7628 20.6257 19.2146 20.2898 19.6606 19.9822C19.7251 19.9376 19.7879 19.8969 19.8493 19.8583C20.1959 19.6408 20.5104 19.5151 20.8952 19.5301C21.7682 19.564 22.2079 20.2712 22.6332 20.9556C22.6999 21.064 22.7654 21.1705 22.8325 21.2731Z" fill="black"/>
<path d="M20.7278 22.4726C20.7151 22.3909 20.662 22.3195 20.5911 22.2923C20.5289 22.2679 20.4634 22.2801 20.4063 22.3256L15.391 26.3473C15.3266 26.3987 15.2972 26.4751 15.3098 26.5567C15.3225 26.6384 15.3756 26.7099 15.4465 26.7371C15.501 26.758 15.5576 26.7514 15.6091 26.7191C15.6171 26.7142 15.625 26.7092 15.6323 26.7032L20.6476 22.6815C20.711 22.6307 20.7404 22.5543 20.7278 22.4726Z" fill="black"/>
<path d="M20.3255 25.3781C20.2553 25.2883 20.1422 25.2752 20.0533 25.3448L18.8944 26.2583C18.7826 26.3464 18.7898 26.4921 18.8616 26.5822C18.9274 26.665 19.0283 26.683 19.1135 26.6295C19.1204 26.6252 19.1274 26.6208 19.1337 26.6155L20.2927 25.702C20.4035 25.6145 20.3962 25.4688 20.3255 25.3781Z" fill="black"/>
<path d="M18.4671 29.3968C18.4134 29.4498 18.3927 29.5179 18.4102 29.5855C18.4301 29.6612 18.4935 29.7249 18.5724 29.7471C18.6312 29.7639 18.6902 29.7545 18.7407 29.7228C18.7546 29.7141 18.7672 29.7034 18.7792 29.6917C19.3253 29.1587 19.9525 28.7086 20.6447 28.3555C20.7467 28.3025 20.7818 28.1936 20.7293 28.0901C20.678 27.9885 20.5498 27.9228 20.4251 27.9859C19.7095 28.3523 19.0506 28.8265 18.4671 29.3968Z" fill="black"/>
<path d="M28.6336 35.031C28.5633 34.9386 28.4505 34.9239 28.3584 34.9927L23.6159 38.6157C23.5039 38.7012 23.509 38.8455 23.5781 38.9359C23.6441 39.0213 23.7473 39.0406 23.8345 38.9859C23.8404 38.9822 23.8464 38.9785 23.8527 38.9731L28.5952 35.3502C28.7072 35.2647 28.7021 35.1203 28.6336 35.031Z" fill="black"/>
<path d="M25.8246 39.5018C25.7595 39.5454 25.7245 39.6128 25.7292 39.6885C25.7344 39.7693 25.7832 39.8449 25.8539 39.8805C25.9162 39.9117 25.9877 39.9068 26.0501 39.8676C26.0521 39.8664 26.0531 39.8658 26.055 39.8645L28.6279 38.1643C28.7439 38.0874 28.7435 37.9526 28.685 37.8638C28.6278 37.777 28.5069 37.7274 28.3975 37.8016L25.8246 39.5018Z" fill="black"/>
<path d="M31.8315 38.1612L26.8505 41.2721C26.7346 41.3448 26.7303 41.4743 26.7868 41.5644C26.8433 41.6544 26.9615 41.7085 27.079 41.6361L32.06 38.5252C32.1253 38.4842 32.1615 38.4188 32.1587 38.3461C32.1568 38.266 32.1083 38.1888 32.037 38.1522C31.9726 38.1154 31.8969 38.1202 31.8315 38.1612Z" fill="black"/>
<path d="M1.50988 5.58665C1.51583 5.58293 1.52177 5.57919 1.52709 5.57448L2.18774 5.07438C2.29938 4.99053 2.29534 4.84553 2.22683 4.75617C2.15646 4.66383 2.04345 4.64651 1.951 4.71694L1.29034 5.21705C1.17871 5.3009 1.18274 5.44589 1.25125 5.53526C1.31753 5.62327 1.42076 5.64259 1.50988 5.58665Z" fill="black"/>
<path d="M3.13184 4.30041L7.33504 1.70527C7.33603 1.70465 7.33604 1.70464 7.33703 1.70402C7.4519 1.63193 7.45582 1.504 7.40094 1.41436C7.34481 1.32273 7.22568 1.26927 7.1082 1.34162L2.905 3.93676C2.83927 3.97939 2.80282 4.04225 2.80465 4.11556C2.80662 4.19567 2.85442 4.27184 2.92534 4.31006C2.99117 4.34458 3.06648 4.34143 3.13184 4.30041Z" fill="black"/>
<path d="M13.0363 36.8188C13.0772 36.818 13.1159 36.8048 13.1505 36.783C13.1842 36.7619 13.2129 36.7328 13.2311 36.698C13.2663 36.6332 13.2632 36.5579 13.2226 36.491L8.29592 28.5045C8.22428 28.3881 8.09468 28.3839 8.00493 28.4389C7.91196 28.4931 7.85799 28.6138 7.93186 28.7316L12.8585 36.7181C12.8985 36.784 12.964 36.8201 13.0363 36.8188Z" fill="black"/>
<path d="M13.5257 37.325C13.4395 37.3833 13.3914 37.5003 13.4658 37.6122L15.0301 39.9464C15.0737 40.0114 15.1421 40.0457 15.2178 40.0409C15.2565 40.0387 15.2941 40.0261 15.3268 40.0056C15.3624 39.9832 15.3915 39.9526 15.4094 39.9152C15.441 39.8512 15.435 39.7778 15.3927 39.7147L13.8284 37.3805C13.7509 37.2637 13.618 37.263 13.5257 37.325Z" fill="black"/>
<path d="M13.4717 39.1193C13.4757 39.1168 13.4797 39.1143 13.4846 39.1112C13.5819 39.0419 13.6017 38.926 13.5321 38.8305C12.6407 37.5906 11.8237 36.2778 11.1057 34.9291C11.0715 34.8637 11.011 34.8245 10.9436 34.8227C10.8662 34.8202 10.7884 34.8635 10.7443 34.934C10.7025 35.0016 10.7007 35.0799 10.7385 35.1513C11.4597 36.5049 12.2791 37.8216 13.1736 39.0665C13.2513 39.1749 13.3816 39.1758 13.4717 39.1193Z" fill="black"/>
<path d="M14.0513 39.9928C14.016 40.0576 14.0201 40.1323 14.0617 40.1986L15.3631 42.2745C15.4041 42.3398 15.4696 42.3759 15.5439 42.3734C15.5842 42.3715 15.6234 42.3593 15.6571 42.3382C15.6907 42.317 15.7188 42.287 15.738 42.2515C15.7732 42.1867 15.7685 42.1111 15.7275 42.0458L14.4261 39.9699C14.3851 39.9046 14.3197 39.8684 14.2453 39.871C14.1652 39.873 14.0889 39.9209 14.0513 39.9928Z" fill="black"/>
<path d="M42.5524 20.7835C42.474 20.7818 42.3969 20.826 42.3537 20.8958C42.3129 20.9628 42.3121 21.0406 42.3499 21.1119L45.6779 27.2064C45.7346 27.31 45.8469 27.3416 45.9516 27.2841C45.9556 27.2817 45.9596 27.2792 45.9635 27.2767C46.0526 27.2207 46.1095 27.1024 46.0444 26.9833L42.7165 20.8888C42.6813 20.824 42.6214 20.7857 42.5524 20.7835Z" fill="black"/>
<path d="M47.0729 29.8064C47.1071 29.8719 47.165 29.9114 47.232 29.9148C47.2748 29.9169 47.3192 29.9042 47.3569 29.8806C47.3866 29.8619 47.4125 29.8373 47.4322 29.8071C47.4756 29.7399 47.4795 29.6602 47.4419 29.5873L46.6026 27.9507C46.5491 27.8478 46.4407 27.8138 46.3361 27.867C46.2361 27.9188 46.1696 28.046 46.2326 28.1705L47.0729 29.8064Z" fill="black"/>
<path d="M47.4687 28.5863C47.4752 28.5836 47.4822 28.5792 47.4881 28.5755C47.5792 28.5183 47.6344 28.3996 47.5748 28.2826L46.1369 25.4195C46.085 25.317 45.977 25.2813 45.8734 25.334C45.7727 25.3847 45.7043 25.5132 45.7669 25.6393L47.2048 28.5024C47.2571 28.6033 47.366 28.6383 47.4687 28.5863Z" fill="black"/>
</g>
</svg>
