<svg width="42" height="44" viewBox="0 0 42 44" fill="none" xmlns="http://www.w3.org/2000/svg">
<g opacity="0.2">
<path d="M1.11338 40.8022L3.6859 42.6441C4.11666 42.9521 4.52325 43.2435 5.06284 43.3476C5.20038 43.3733 5.33793 43.3884 5.48152 43.3929C5.80044 43.5258 6.07099 43.6149 6.33398 43.6722C6.70278 43.7508 7.07762 43.7915 7.44945 43.7915C7.90742 43.7915 8.36086 43.7311 8.79314 43.6119C9.71362 43.3582 10.4754 42.8041 11.213 42.2667L11.2523 42.238C11.7964 41.8424 12.3753 41.468 12.9345 41.1072C13.2202 40.923 13.5059 40.7373 13.7885 40.5501C18.9698 37.1018 23.5677 33.9554 27.8466 30.9329C30.9693 28.7271 33.4617 26.9093 35.6926 25.2139C36.7703 24.3956 38.0203 23.4369 39.2249 22.4359C39.3171 22.3604 39.4093 22.2834 39.503 22.2064C40.1515 21.6735 40.821 21.1239 41.2881 20.4385C41.7854 19.7078 42.0438 18.7476 41.9939 17.8055C41.8927 15.873 40.4946 14.3375 38.5946 14.0718C36.6721 13.8031 34.754 14.5912 33.4783 15.2072C30.9965 16.4059 28.4557 17.8583 25.7245 19.6398C27.2209 17.6726 28.4361 16.0466 29.5289 14.5489C30.6519 13.0105 31.6177 11.6502 32.4838 10.391C33.0098 9.62407 33.569 8.79974 34.089 7.95729C34.6135 7.1088 35.2075 6.14859 35.3118 5.0057C35.5234 2.67312 33.9499 0.461317 31.8021 0.0733081C29.9854 -0.25431 28.0114 0.514156 25.7669 2.41948C23.876 4.02436 22.159 5.93572 20.6445 7.62061C19.0681 9.37496 17.4765 11.2863 15.9152 13.3003C13.1673 16.8453 10.4089 20.828 7.48118 25.4751C6.27352 27.391 4.99331 29.488 3.568 31.887C2.98911 32.8608 2.37092 33.9086 1.67867 35.0907C1.3658 35.6252 1.05444 36.1597 0.74157 36.6941C0.699249 36.7666 0.655419 36.8406 0.611587 36.913C0.372775 37.3116 0.124892 37.7238 0.0417619 38.1978C-0.135079 39.2018 0.254873 40.15 1.11338 40.8022ZM3.0148 40.1152C3.0284 40.1243 3.04201 40.1349 3.05561 40.1439C3.24303 40.2632 3.44407 40.3915 3.65416 40.5123C4.28444 40.8747 5.11272 41.2476 5.93798 40.9275C6.7708 40.6029 7.38444 39.7876 7.92705 39.0675C8.06913 38.8803 8.20215 38.7021 8.33667 38.536C8.41376 38.4409 8.43189 38.3232 8.38957 38.2099C8.34574 38.0952 8.24599 38.0091 8.13414 37.991C8.03741 37.9744 7.9452 38.0137 7.87718 38.0982C7.73662 38.2703 7.60058 38.4545 7.45548 38.6478C7.02169 39.2275 6.5743 39.8269 6.0075 40.1832C5.19736 40.6935 4.30107 40.1983 3.52418 39.694C3.43803 39.6382 3.35186 39.5808 3.27025 39.5264C3.23095 39.5008 3.19316 39.4736 3.15689 39.4449C3.12817 39.4238 3.10095 39.4026 3.07223 39.383L3.0405 39.3619C2.91051 39.2713 2.77449 39.1777 2.64904 39.078C2.2092 38.7353 1.7754 38.3292 1.35673 37.8702C1.41416 37.763 1.47613 37.6558 1.54263 37.5456L1.60158 37.446C2.20012 36.4163 2.80169 35.3897 3.40477 34.363C4.79229 32.0063 5.96065 30.0587 7.08518 28.2319C9.94033 23.5909 12.4554 19.8195 14.9977 16.3636C17.9889 12.2979 20.9559 8.78011 24.0665 5.61112L24.3718 5.2986C25.8379 3.7994 27.3539 2.24737 29.2991 1.47739C30.3678 1.05465 31.3185 1.00332 32.1271 1.32339C32.9932 1.66762 33.6733 2.40136 33.9968 3.33893C33.6144 4.90908 32.5503 6.21502 31.521 7.47718C31.3472 7.69006 31.1749 7.90294 31.0071 8.1128L13.9034 29.6465C13.855 29.7084 13.8308 29.7809 13.8339 29.8624C13.8384 30.0044 13.9366 30.1387 14.0666 30.181C14.1755 30.2172 14.2873 30.1795 14.3644 30.0829L31.2671 8.80275C31.4711 8.5461 31.6827 8.28793 31.8974 8.02825C32.7574 6.98198 33.6431 5.90401 34.2008 4.68261C34.1797 5.26085 34.0179 5.83003 33.7172 6.37808C33.2184 7.29148 32.6334 8.1747 32.0772 9.00054C31.2943 10.1646 30.4267 11.4026 29.3475 12.8987C27.5111 15.4457 25.4646 18.1769 22.9072 21.4968L22.8135 21.6161C22.6064 21.8849 22.3978 22.1521 22.1908 22.4193L21.6013 23.1787C21.3035 23.5622 21.0058 23.9472 20.7065 24.3307C17.7863 28.0719 14.7589 31.8659 11.4503 35.9302C11.2251 36.2065 10.9938 36.4812 10.7641 36.756C10.297 37.3116 9.81489 37.8853 9.37959 38.4771C8.70547 39.3921 7.9845 40.2541 7.36631 40.9788L7.23178 41.1389C6.7859 41.6688 6.32642 42.2153 5.68707 42.2772C5.51023 42.2938 5.3334 42.2742 5.14598 42.2168C4.84217 42.1247 4.56103 41.9119 4.28897 41.708C4.21491 41.6522 4.14237 41.5978 4.06982 41.5465L1.69529 39.8465C1.37789 39.6065 1.16478 39.2245 1.12397 38.8259C1.11491 38.7353 1.11489 38.6462 1.12698 38.5526C1.55019 38.9905 2.00515 39.3906 2.47975 39.7423C2.65508 39.8722 2.82134 39.9884 2.9876 40.0971C2.99516 40.1001 3.00573 40.1077 3.0148 40.1152ZM40.8724 18.192C40.0638 18.8819 39.2914 19.4858 38.516 20.0369C38.3468 20.1577 38.3468 20.3706 38.445 20.508C38.5448 20.6469 38.711 20.6755 38.8486 20.5774C39.4199 20.1713 40.0018 19.7244 40.6654 19.1824C40.4009 19.8708 39.9051 20.3555 39.3368 20.8643C38.179 21.9015 36.92 22.8692 35.8075 23.7237C33.7187 25.3286 31.4757 26.9788 28.5328 29.0743C24.3763 32.035 19.786 35.1919 14.5004 38.7278C13.1628 39.6216 12.0534 40.3598 11.0089 41.0468C10.7913 41.1902 10.5782 41.3457 10.3711 41.4982C9.97056 41.7926 9.5549 42.0961 9.09995 42.3089C8.56792 42.558 7.96032 42.6773 7.33306 42.6577C7.48723 42.5218 7.63686 42.3708 7.78196 42.2033C8.20366 41.7141 8.59815 41.234 8.90045 40.8626L9.01078 40.8898C9.04857 40.8988 9.0909 40.9124 9.13473 40.9245C9.27227 40.9668 9.42795 41.0136 9.56549 40.9818C9.70304 40.9486 9.84662 40.8279 9.97207 40.7207C10.0174 40.6829 10.0582 40.6467 10.0945 40.6195L12.9557 38.5285C13.125 38.4047 13.122 38.1888 13.0222 38.0514C12.9225 37.9155 12.7577 37.8899 12.6217 37.988L10.5872 39.4751C10.4754 39.5566 10.3635 39.6427 10.2517 39.7287C10.0325 39.8963 9.80732 40.07 9.57455 40.2164C9.47328 40.2798 9.41434 40.3025 9.34935 40.304C9.5942 39.999 9.83754 39.6925 10.0824 39.386C10.5177 38.8395 10.9681 38.2733 11.4291 37.7102C12.9345 35.8683 14.5034 33.9282 16.0905 31.9474C16.1721 31.8463 16.2522 31.7436 16.3323 31.6425L16.5046 31.425L19.5895 33.356C19.591 33.3591 19.591 33.3621 19.5925 33.3651C19.3552 33.5206 19.1195 33.6776 18.8822 33.8346C18.329 34.2 17.7758 34.5669 17.2195 34.9277C17.0442 35.0409 17.0427 35.2463 17.1304 35.3806C17.2105 35.5029 17.3737 35.5844 17.546 35.4727C18.2745 35.0002 19.0106 34.514 19.7225 34.0445L20.182 33.741C20.3891 33.7154 20.5614 33.6021 20.6415 33.4391C24.993 30.5615 29.2629 27.6189 33.3333 24.696C34.7918 23.6483 36.2821 22.5627 37.7649 21.4666C37.8631 21.3942 37.9115 21.284 37.8979 21.1632C37.8843 21.0409 37.8087 20.9322 37.7059 20.8884C37.6152 20.8492 37.5185 20.8627 37.4308 20.9277C32.6818 24.4379 27.7469 27.9133 22.7636 31.262L21.8083 24.7111C21.9338 24.5496 22.0608 24.3896 22.1862 24.228C22.36 24.0076 22.5323 23.7872 22.7046 23.5652C22.8648 23.3599 23.022 23.1531 23.1807 22.9462C23.3107 22.7771 23.4407 22.6065 23.5707 22.4374C26.1326 20.6499 28.5752 19.1159 31.0373 17.7466L31.4636 17.5081C32.9388 16.6837 34.4638 15.8307 36.0977 15.3868C37.461 15.0169 39.302 14.8675 40.3238 16.2685C40.7152 16.806 40.9087 17.4869 40.8724 18.192ZM21.0798 32.3943C20.9256 32.4955 20.773 32.5951 20.6203 32.6963C20.3301 30.8453 20.0853 28.9868 19.8933 27.1675C20.1215 26.8776 20.3483 26.5863 20.5765 26.2964L20.8652 25.928L21.7192 31.7798C21.7282 31.8387 21.7449 31.8931 21.769 31.9429C21.5378 32.0939 21.308 32.2433 21.0798 32.3943Z" fill="black"/>
<path d="M9.90184 35.8608C9.9094 35.8608 9.91847 35.8623 9.92603 35.8623C10.0318 35.8623 10.1271 35.811 10.189 35.7204L10.9311 34.6273C10.9931 34.5352 11.0037 34.4341 10.9584 34.342C10.9085 34.2393 10.7966 34.1669 10.6742 34.1578C10.5578 34.1487 10.4535 34.2016 10.387 34.2997L9.6449 35.3928C9.58293 35.4849 9.57234 35.586 9.61768 35.6781C9.66756 35.7793 9.77941 35.8518 9.90184 35.8608Z" fill="black"/>
<path d="M14.812 36.5763L14.422 36.9024C14.3631 36.9522 14.3283 37.0247 14.3253 37.1078C14.3208 37.2014 14.3555 37.2935 14.4175 37.3554C14.4779 37.4157 14.555 37.4475 14.6351 37.4475C14.7122 37.4475 14.7923 37.4188 14.8618 37.3599L15.2518 37.0353C15.3108 36.9855 15.3455 36.913 15.3485 36.83C15.3531 36.7364 15.3183 36.6443 15.2564 36.5824C15.1354 36.4601 14.9525 36.4586 14.812 36.5763Z" fill="black"/>
<path d="M23.3239 9.48073C23.3375 9.4913 23.3496 9.49582 23.3466 9.4928C23.3526 9.50035 23.3617 9.51092 23.3753 9.52149C23.4766 9.59245 23.5778 9.66492 23.6776 9.73738C24.0585 10.0107 24.453 10.2915 24.8626 10.5361C25.1875 10.7293 25.4838 10.8259 25.7604 10.8259C25.913 10.8259 26.0581 10.7972 26.2002 10.7384C26.575 10.5844 26.8698 10.2839 27.1539 9.99254C27.2144 9.93064 27.2749 9.86874 27.3353 9.80986C27.6044 9.54565 27.8749 9.28144 28.1439 9.01723C28.676 8.49636 29.208 7.97549 29.737 7.45009C30.3099 6.88091 30.4444 6.26946 30.1164 5.72595C29.8685 5.31831 29.4544 5.02994 29.0871 4.77479C28.6745 4.48794 28.1772 4.18297 27.6149 4.0954C26.4798 3.91725 25.5805 4.92426 24.858 5.73198C24.7114 5.89655 24.5724 6.05205 24.4379 6.19095C24.3018 6.33136 24.1658 6.47177 24.0297 6.61067C23.7622 6.88544 23.4841 7.17079 23.2166 7.45613C22.9294 7.76262 22.7813 8.1627 22.8115 8.55071C22.8433 8.91457 23.0246 9.2437 23.3239 9.48073ZM23.4539 8.50089C23.4403 8.27593 23.5551 8.02532 23.7788 7.79281L25.7422 5.75765C25.8012 5.69726 25.8586 5.63536 25.916 5.57346C26.1775 5.29415 26.4481 5.00428 26.7806 4.83518C27.562 4.43812 28.6201 5.06316 29.3486 5.7803C29.734 6.16076 29.7446 6.52008 29.3803 6.91262C29.3486 6.94583 29.3153 6.97905 29.2821 7.01075L26.9635 9.28748C26.8154 9.43393 26.6673 9.58037 26.5161 9.72531L26.4708 9.76909C26.3287 9.90799 26.1821 10.0514 26.0082 10.1314C25.7029 10.2718 25.4188 10.1269 25.1316 9.95177C24.7447 9.71625 24.3668 9.446 24.001 9.18482L23.7501 9.00666C23.5657 8.86021 23.466 8.6881 23.4539 8.50089Z" fill="black"/>
<path d="M36.5902 17.6394C36.312 17.3405 35.9312 16.9691 35.4475 16.7638C34.3744 16.3078 33.2589 17.0823 32.3611 17.7043C32.1812 17.8296 32.0104 17.9474 31.8472 18.0516C31.6824 18.1573 31.5177 18.2614 31.3514 18.3656C31.0234 18.5725 30.6834 18.7868 30.3539 19.0058C30.0032 19.2383 29.778 19.5749 29.7175 19.9524C29.6586 20.3268 29.7674 20.7133 30.0274 21.0424C30.1045 21.13 30.1815 21.2176 30.2586 21.3066C30.567 21.6599 30.8844 22.0238 31.2229 22.3589C31.4663 22.5975 31.8321 22.9009 32.3158 22.9009C32.3717 22.9009 32.4291 22.8964 32.488 22.8889C32.8931 22.83 33.2574 22.599 33.608 22.3771C33.6851 22.3287 33.7622 22.2804 33.8378 22.2336C34.1597 22.0389 34.4832 21.8456 34.8051 21.6524C35.4384 21.2734 36.0929 20.8809 36.7338 20.4883C37.4366 20.0565 37.6875 19.4391 37.423 18.7914C37.2416 18.3399 36.8804 17.9519 36.5902 17.6394ZM36.6597 19.7772C36.5841 19.8437 36.4874 19.8995 36.3952 19.9539L33.602 21.6358C33.4176 21.7475 33.2317 21.8592 33.0458 21.9694L32.9868 22.0041C32.7813 22.1264 32.547 22.2668 32.3142 22.2668C32.0346 22.2668 31.8124 22.0449 31.6341 21.8652C31.3121 21.5437 31.0068 21.1934 30.7121 20.8552L30.4899 20.6016C30.3569 20.4325 30.304 20.2619 30.3312 20.0913C30.3826 19.7818 30.6849 19.5478 30.8602 19.436L33.2483 17.9082C33.3178 17.8629 33.3889 17.8161 33.4599 17.7693C33.8393 17.5171 34.2308 17.2559 34.6691 17.2393C34.6827 17.2393 34.6963 17.2393 34.7099 17.2393C35.5926 17.2393 36.3801 18.2871 36.6793 18.7431C36.9695 19.1839 36.9635 19.5115 36.6597 19.7772Z" fill="black"/>
<path d="M9.72421 21.1013C9.75746 21.1209 9.79375 21.13 9.82851 21.13C9.89351 21.13 9.95547 21.0968 9.99174 21.0349C12.1637 17.3314 14.6743 13.8001 17.4554 10.539C17.537 10.4424 17.5068 10.3171 17.4282 10.2506C17.3465 10.1812 17.2377 10.1902 17.1682 10.2702C14.3629 13.56 11.8327 17.1155 9.65166 20.8371C9.59574 20.9307 9.62748 21.0454 9.72421 21.1013Z" fill="black"/>
<path d="M13.374 14.4598L16.415 10.1615C16.4543 10.1056 16.4619 10.0407 16.4347 9.98333C16.406 9.91992 16.338 9.87463 16.2639 9.86708C16.1913 9.86104 16.1248 9.89123 16.0825 9.95162L13.0415 14.2499C12.981 14.336 12.9991 14.4432 13.0868 14.5051C13.1231 14.5307 13.1669 14.5443 13.2123 14.5443C13.2712 14.5443 13.3317 14.5187 13.374 14.4598Z" fill="black"/>
<path d="M11.5986 16.5885C11.6031 16.5885 11.6077 16.5885 11.6122 16.5885C11.6787 16.5885 11.7377 16.5568 11.7754 16.4994L12.4148 15.5407C12.4526 15.4833 12.4586 15.4169 12.4299 15.3595C12.3982 15.2961 12.3301 15.2523 12.2561 15.2463C12.185 15.2418 12.1201 15.2735 12.0792 15.3339L11.4399 16.2926C11.4021 16.3499 11.3961 16.4164 11.4248 16.4737C11.4565 16.5402 11.5245 16.584 11.5986 16.5885Z" fill="black"/>
<path d="M31.4262 29.3553C31.3642 29.2677 31.2569 29.2496 31.1708 29.31L23.1509 34.9565C23.0905 34.9988 23.0602 35.0652 23.0663 35.1377C23.0723 35.2117 23.1192 35.2796 23.1827 35.3083C23.2054 35.3189 23.2295 35.3234 23.2537 35.3234C23.29 35.3234 23.3278 35.3113 23.361 35.2872L31.3809 29.6406C31.4851 29.5697 31.4852 29.4398 31.4262 29.3553Z" fill="black"/>
<path d="M22.2213 35.9258C22.2153 35.8518 22.1699 35.7838 22.1064 35.7536C22.049 35.7265 21.9825 35.7325 21.9266 35.7718L20.4514 36.7863C20.3471 36.8573 20.3456 36.9871 20.403 37.0717C20.4408 37.126 20.4952 37.1547 20.5526 37.1547C20.5889 37.1547 20.6252 37.1441 20.66 37.12L22.1351 36.1054C22.1956 36.0631 22.2274 35.9967 22.2213 35.9258Z" fill="black"/>
<path d="M21.6606 37.5668C21.6969 37.5668 21.7332 37.5562 21.7664 37.5321L26.3159 34.4159C26.4202 34.3449 26.4233 34.2151 26.3658 34.1321C26.3054 34.043 26.1965 34.0218 26.1089 34.0822L21.5594 37.1984C21.4551 37.2694 21.4521 37.3992 21.5095 37.4822C21.5473 37.5381 21.6032 37.5668 21.6606 37.5668Z" fill="black"/>
</g>
</svg>
