<svg width="32" height="32" viewBox="0 0 32 32" fill="none" xmlns="http://www.w3.org/2000/svg">
<g clip-path="url(#clip0_1750_8636)">
<path d="M28.5082 27.2217H0.670875C0.300375 27.2217 0 27.5221 0 27.8926V30.576C0 30.9465 0.300375 31.2469 0.670875 31.2469H27.8825C28.1943 31.2469 28.465 31.032 28.5358 30.7284L29.1616 28.0449C29.2597 27.6241 28.9403 27.2217 28.5082 27.2217Z" fill="#228475"/>
<path d="M17.9201 17.8418H15.869C14.7575 17.8418 13.8564 18.7429 13.8564 19.8544V21.1961V22.5378H19.9327V21.1961V19.8544C19.9326 18.7429 19.0316 17.8418 17.9201 17.8418Z" fill="#228475"/>
<path d="M31.9716 17.3847L29.9151 10.5184C29.6461 9.62 28.9275 8.92725 28.0199 8.69125L26.637 8.33162C26.5705 8.31431 26.504 8.29806 26.4375 8.28143V6.40093C26.4375 6.38512 26.4381 6.36937 26.4386 6.35362C26.4503 5.959 26.6077 5.58831 26.8857 5.30562L29.7935 2.34768C30.1565 1.97843 30.1515 1.38487 29.7822 1.02187C29.4129 0.658871 28.8193 0.663996 28.4565 1.03325L25.5486 3.99118C25.0053 4.54387 24.6714 5.24937 24.5855 6.00881C24.5708 6.13818 24.5625 6.26893 24.5625 6.401V7.9015C23.4767 7.73212 22.391 7.64887 21.3141 7.64887C13.3296 7.64887 5.82065 12.1957 2.24802 19.6794L0.0662732 24.2494C-0.146289 24.6946 0.178336 25.2092 0.671711 25.2092H27.6309C28.1816 25.2092 28.4978 24.5822 28.1703 24.1394C26.7876 22.2701 27.6087 19.5962 29.8023 18.8251L31.5516 18.2101C31.8895 18.0913 32.0745 17.7279 31.9716 17.3847ZM26.3119 16.2619C25.1611 17.1828 24.3038 18.4352 23.8538 19.9006L23.8499 19.9134C23.6166 20.6755 22.9131 21.1959 22.1161 21.1959H19.9329V22.5376H13.8566V21.1959H11.4556C9.05077 21.1959 7.85434 18.2702 9.57871 16.5939C10.4332 15.7632 11.3765 15.0201 12.3968 14.3779C15.146 12.6477 18.3094 11.7331 21.545 11.7331C22.9985 11.7331 24.4538 11.9199 25.8708 12.2884C26.1575 12.3629 26.3844 12.5817 26.4694 12.8654L26.9141 14.3502C27.1238 15.0507 26.8828 15.805 26.3119 16.2619Z" fill="#228475"/>
</g>
<defs>
<clipPath id="clip0_1750_8636">
<rect width="32" height="32" fill="white"/>
</clipPath>
</defs>
</svg>
