<svg width="21" height="21" viewBox="0 0 21 21" fill="none" xmlns="http://www.w3.org/2000/svg">
<path d="M15.9107 12.556L15.912 12.5582C16.1573 12.9607 16.1999 13.4331 16.0377 13.8633C15.8727 14.3013 15.5345 14.63 15.0995 14.773L15.0995 14.773L15.0968 14.7739C13.5332 15.2978 11.887 15.5563 10.239 15.5563C8.59096 15.5563 6.94557 15.2978 5.38332 14.7663L5.38232 14.766C4.8886 14.5992 4.54253 14.2652 4.40133 13.871L4.40134 13.871L4.39991 13.8671C4.24954 13.4581 4.29491 12.9989 4.5592 12.5555C4.55945 12.5551 4.55969 12.5547 4.55993 12.5543L5.40012 11.1651L5.40018 11.1651L5.40417 11.1582C5.52235 10.9557 5.61965 10.6885 5.68706 10.4406C5.75437 10.1931 5.80562 9.91409 5.80562 9.68132L5.80562 7.57298C5.80562 5.83869 6.81473 4.33202 8.2783 3.60399L8.41663 3.53518L8.49203 3.40033C8.83824 2.78115 9.48927 2.38965 10.2139 2.38965C10.9512 2.38965 11.5845 2.76839 11.9287 3.37734L12.0063 3.51461L12.1485 3.58254C13.6405 4.29476 14.6723 5.81547 14.6723 7.57298V9.68132C14.6723 9.91408 14.7235 10.193 14.7907 10.4411C14.8582 10.6904 14.9549 10.9572 15.0708 11.1615L15.0706 11.1615L15.0773 11.1727L15.9107 12.556Z" stroke="black"/>
<path d="M10.223 18.0563C9.71343 18.0563 9.21184 17.8557 8.85294 17.5045C9.30837 17.5421 9.77307 17.5646 10.2397 17.5646C10.6984 17.5646 11.155 17.5422 11.6024 17.5045C11.2419 17.8468 10.7558 18.0563 10.223 18.0563Z" stroke="black"/>
</svg>
